<svg width="210" height="70" viewBox="0 0 210 70" fill="none" xmlns="http://www.w3.org/2000/svg">
<g clip-path="url(#clip0_2412_13543)">
<path d="M74.2241 58.3122H73.4619L72.3185 54.9774L71.3657 52.0237L70.4129 54.9774L69.2695 58.3122H68.5073L65.7441 50.4992H66.6016L68.8884 57.2641L71.1751 50.4992H71.6515L73.9383 57.2641L76.2251 50.4992H77.0826L74.2241 58.3122ZM82.2278 52.6906H82.8948V58.2169H82.2278V57.1688C81.7514 58.0264 80.8938 58.4075 80.0363 58.4075C78.5118 58.4075 77.1779 57.2641 77.1779 55.5491C77.1779 53.834 78.4165 52.6906 80.0363 52.6906C80.8938 52.6906 81.7514 53.0718 82.2278 53.834V52.6906ZM78.0354 55.4538C78.0354 56.7877 78.9882 57.6453 80.1316 57.6453C82.99 57.6453 82.99 53.3576 80.1316 53.3576C78.8929 53.3576 78.0354 54.2151 78.0354 55.4538ZM85.5626 50.4039V58.2169H84.8004V50.4039H85.5626ZM88.0399 50.4039V55.0727L90.422 52.6906H91.3748L88.7069 55.2632L91.6606 58.1217H90.7078L87.9447 55.4538V58.1217H87.1824V50.3086L88.0399 50.4039ZM93.1851 59.265H92.6134L92.8993 58.3122C92.7087 58.2169 92.5182 58.1217 92.5182 57.8358C92.5182 57.1689 93.5663 57.1689 93.5663 57.8358C93.6615 58.1217 93.471 58.5981 93.1851 59.265ZM104.047 58.2169H98.4256V50.4039H103.952V51.1661H99.1879V53.9293H103.666V54.6915H99.1879V57.55H104.047V58.2169ZM108.907 52.6906H109.764L107.858 55.3585L109.955 58.2169H109.097L107.477 55.9302L105.858 58.2169H105L107.096 55.3585L105.191 52.6906H106.048L107.573 54.8821L108.907 52.6906ZM111.003 60.8848V52.6906H111.765V53.834C112.146 53.0718 113.004 52.5953 113.956 52.5953C115.481 52.5953 116.72 53.7387 116.72 55.4538C116.72 57.2641 115.576 58.3122 113.956 58.3122C113.099 58.3122 112.241 57.9311 111.765 57.0736V60.7895C111.765 60.8848 111.003 60.8848 111.003 60.8848ZM115.957 55.4538C115.957 54.1198 115.1 53.3576 113.861 53.3576C112.623 53.3576 111.765 54.3104 111.765 55.4538C111.765 56.6924 112.623 57.55 113.861 57.55C115.1 57.6453 115.957 56.883 115.957 55.4538ZM119.006 50.4039V58.2169H118.244V50.4039H119.006ZM126.152 55.5491C126.152 57.2641 124.914 58.4075 123.294 58.4075C121.674 58.4075 120.436 57.2641 120.436 55.5491C120.436 53.834 121.579 52.6906 123.294 52.6906C124.914 52.5953 126.152 53.834 126.152 55.5491ZM121.198 55.5491C121.198 56.7877 122.055 57.6453 123.294 57.6453C124.533 57.6453 125.39 56.7877 125.39 55.5491C125.39 54.3104 124.533 53.3576 123.294 53.3576C122.055 53.3576 121.198 54.2151 121.198 55.5491ZM128.249 52.6906V53.6434C128.63 52.8812 129.297 52.6906 129.964 52.6906C130.44 52.6906 130.821 52.7859 131.202 53.0718L130.821 53.7387C130.535 53.5482 130.25 53.4529 129.868 53.4529C128.916 53.4529 128.153 54.2151 128.153 55.1679V58.3122H127.391V52.7859L128.249 52.6906ZM132.346 55.8349C132.441 56.9783 133.299 57.6453 134.442 57.6453C135.109 57.6453 135.871 57.3594 136.348 56.883L136.824 57.3594C136.252 58.0264 135.299 58.4075 134.442 58.4075C132.822 58.4075 131.584 57.2641 131.584 55.5491C131.584 53.9293 132.727 52.6906 134.442 52.6906C136.157 52.6906 137.396 53.6434 137.205 55.8349H132.346ZM136.538 55.1679C136.538 53.9293 135.585 53.2623 134.537 53.2623C133.394 53.2623 132.632 53.9293 132.441 55.1679H136.538ZM146.066 52.6906H146.733V58.2169H146.066V57.1688C145.59 58.0264 144.732 58.4075 143.875 58.4075C142.35 58.4075 141.016 57.2641 141.016 55.5491C141.016 53.834 142.255 52.6906 143.875 52.6906C144.732 52.6906 145.59 53.0718 146.066 53.834V52.6906ZM141.874 55.4538C141.874 56.7877 142.827 57.6453 143.97 57.6453C146.829 57.6453 146.829 53.3576 143.97 53.3576C142.731 53.3576 141.874 54.2151 141.874 55.4538ZM152.927 58.2169V55.0727C152.927 53.9293 152.26 53.2623 151.116 53.2623C150.068 53.2623 149.306 54.1198 149.306 55.1679V58.2169H148.544V52.6906H149.306V53.6434C149.782 52.9765 150.449 52.5953 151.211 52.5953C152.641 52.5953 153.689 53.4529 153.689 55.0727V58.2169H152.927ZM160.644 50.4039V58.2169H159.882V57.0736C159.406 57.8358 158.548 58.3122 157.691 58.3122C156.166 58.3122 154.927 57.2641 154.927 55.4538C154.927 53.6434 156.166 52.5953 157.691 52.5953C158.548 52.5953 159.406 52.9765 159.882 53.834V50.4039H160.644ZM155.69 55.4538C155.69 56.883 156.643 57.6453 157.786 57.6453C158.929 57.6453 159.882 56.7877 159.882 55.4538C159.882 54.2151 158.929 53.3576 157.786 53.3576C156.643 53.3576 155.69 54.1198 155.69 55.4538ZM168.267 50.4039C170.935 50.4039 172.173 52.3095 172.173 54.2151C172.173 56.216 171.03 58.2169 168.267 58.2169H165.504V50.4039H168.267ZM166.361 57.55H168.362C170.554 57.55 171.506 55.8349 171.506 54.3104C171.506 52.7859 170.458 51.2614 168.362 51.2614H166.361V57.55ZM174.555 50.9756C174.555 51.6425 173.507 51.6425 173.507 50.9756C173.507 50.3086 174.555 50.3086 174.555 50.9756ZM173.603 52.6906V58.2169H174.365V52.6906H173.603ZM179.701 53.834C179.224 53.3576 178.652 53.2623 178.081 53.2623C177.319 53.2623 176.556 53.5482 176.556 54.1198C176.556 54.7868 177.414 54.8821 178.081 55.0727C179.034 55.2632 180.368 55.3585 180.368 56.6924C180.368 57.8358 179.224 58.3122 178.081 58.3122C177.128 58.3122 176.175 58.0264 175.603 57.2641L176.08 56.7877C176.556 57.4547 177.414 57.6453 178.081 57.6453C178.748 57.6453 179.605 57.4547 179.605 56.6924C179.605 55.9302 178.843 55.8349 177.986 55.7396C176.937 55.5491 175.794 55.3585 175.794 54.2151C175.794 53.0718 176.937 52.5953 177.986 52.5953C178.843 52.5953 179.51 52.7859 180.082 53.3576L179.701 53.834ZM186.275 57.55C185.703 58.1217 184.941 58.4075 184.179 58.4075C182.559 58.4075 181.32 57.3594 181.32 55.5491C181.32 53.7387 182.559 52.6906 184.179 52.6906C184.941 52.6906 185.608 52.9765 186.18 53.5482L185.703 54.0246C185.322 53.6434 184.75 53.4529 184.274 53.4529C183.131 53.4529 182.178 54.2151 182.178 55.6444C182.178 57.0736 183.131 57.8358 184.274 57.8358C184.846 57.8358 185.417 57.6453 185.799 57.1688L186.275 57.55ZM192.659 55.5491C192.659 57.2641 191.42 58.4075 189.8 58.4075C188.181 58.4075 186.942 57.2641 186.942 55.5491C186.942 53.834 188.085 52.6906 189.8 52.6906C191.42 52.5953 192.659 53.834 192.659 55.5491ZM187.704 55.5491C187.704 56.7877 188.562 57.6453 189.8 57.6453C191.039 57.6453 191.897 56.7877 191.897 55.5491C191.897 54.3104 191.039 53.3576 189.8 53.3576C188.562 53.3576 187.704 54.2151 187.704 55.5491ZM198.757 52.6906L196.47 58.2169H195.613L193.326 52.6906H194.183L196.089 57.3594L197.995 52.6906H198.757ZM200.091 55.8349C200.186 56.9783 201.044 57.6453 202.187 57.6453C202.854 57.6453 203.616 57.3594 204.093 56.883L204.569 57.3594C203.997 58.0264 203.045 58.4075 202.187 58.4075C200.567 58.4075 199.329 57.2641 199.329 55.5491C199.329 53.9293 200.472 52.6906 202.187 52.6906C203.807 52.6906 205.141 53.6434 204.95 55.8349H200.091ZM204.188 55.1679C204.188 53.9293 203.235 53.2623 202.187 53.2623C201.139 53.2623 200.281 53.9293 200.091 55.1679H204.188ZM206.951 52.6906V53.6434C207.332 52.8812 207.999 52.6906 208.666 52.6906C209.143 52.6906 209.524 52.7859 209.905 53.0718L209.524 53.7387C209.238 53.5482 208.952 53.4529 208.571 53.4529C207.618 53.4529 206.856 54.2151 206.856 55.1679V58.3122H206.094V52.7859L206.951 52.6906Z" fill="#595A5C"/>
<path d="M75.2722 17.5317C75.1769 15.8166 75.1769 15.1497 75.1769 14.578V9.52808H79.274V24.1061H75.7486L69.6506 16.293L69.7459 19.4373V24.1061H65.5535V9.52808H69.0789L75.2722 17.5317ZM93.9474 24.1061H82.2278V9.52808H93.5662V12.9582H86.2296V15.0544H93.0898V18.3892H86.2296V20.5807H93.8521C93.9474 20.676 93.9474 24.1061 93.9474 24.1061ZM100.331 20.1996V24.1061H96.2341V9.52808H103.285C107.191 9.52808 109.097 12.0054 109.097 14.8638C109.097 17.8176 107.096 20.1996 103.285 20.1996H100.331ZM100.331 16.6742H103.285C104.428 16.6742 105 15.8166 105 14.8638C105 13.911 104.428 13.0535 103.285 13.0535H100.331V16.6742ZM120.054 21.7241H113.575L112.622 24.1061H108.24L114.814 9.52808H119.006L125.485 24.1061H121.007L120.054 21.7241ZM116.815 13.6252L114.909 18.294H118.625L116.815 13.6252ZM130.726 9.52808V20.5807H137.681V24.1061H126.629V9.52808H130.726Z" fill="#0494C5"/>
<path d="M74.9864 44.4964V38.9701H69.7459V44.4964H65.6488V29.9184H69.7459V35.4447H74.9864V29.9184H79.0835V44.4964H74.9864ZM82.0372 44.4964V29.9184H86.1343V44.4964H82.0372ZM101.951 30.2042L96.0436 37.0645C98.0445 39.3512 100.427 41.9238 102.427 44.2106V44.4964H97.2822L93.0898 39.637V44.4964H88.9928V29.9184H93.0898V34.6824C94.3285 33.1579 95.6624 31.4429 96.9011 29.9184H101.856V30.2042H101.951ZM103.761 44.4964V29.9184H107.858V44.4964H103.761ZM120.436 37.922C120.34 36.2069 120.34 35.54 120.34 34.9683V30.0136H124.533V44.5917H121.007L114.909 36.7786L115.005 39.9229V44.5917H110.812V29.9184H114.338L120.436 37.922ZM137.967 34.206C136.919 33.2532 135.585 32.9674 134.632 32.9674C132.25 32.9674 130.726 34.3966 130.726 37.255C130.726 39.1606 131.679 41.4474 134.632 41.4474C135.395 41.4474 136.633 41.2568 137.491 40.6851V38.7795H133.775V35.54H140.921V42.0191C139.968 43.8294 137.491 44.8775 134.632 44.8775C128.82 44.8775 126.629 41.0663 126.629 37.255C126.629 33.4438 129.106 29.5372 134.632 29.5372C136.633 29.5372 138.444 29.9184 140.349 31.9193L137.967 34.206ZM150.449 33.3485H146.162V29.9184H158.739V33.3485H154.451V44.4964H150.354L150.449 33.3485ZM172.269 44.4964H160.644V29.9184H171.983V33.3485H164.646V35.4447H171.506V38.7795H164.646V40.971H172.269V44.4964ZM184.655 42.1144H178.176L177.223 44.4964H172.84L179.415 29.9184H183.607L190.086 44.4964H185.703L184.655 42.1144ZM181.416 34.0155L179.51 38.6842H183.226L181.416 34.0155ZM203.33 35.8258L199.614 40.2087H198.852L195.231 35.8258V44.4964H191.134V29.9184H195.422L199.233 34.873L203.044 29.9184H207.332V44.4964H203.235L203.33 35.8258Z" fill="#FAF9F6"/>
<path d="M0 65.8394V0.381125C0 0.0952813 0.0952813 0 0.381125 0H58.3121C58.4074 0 58.4074 0.0952813 58.4074 0.0952813V65.7441C58.2169 65.9347 58.0263 65.9347 57.8357 65.9347H38.5889C38.3031 65.9347 38.2078 66.0299 38.3031 66.3158C38.3984 66.8875 38.4936 67.5545 38.4936 68.1261C38.4936 68.5073 38.3983 68.8884 38.2078 69.2695C38.0172 69.6506 37.7314 69.7459 37.3503 69.8412H36.4927C35.5399 69.6506 35.2541 68.8884 35.0635 68.1261C34.9682 67.5545 34.8729 67.078 34.7777 66.5064C34.6824 65.9347 34.6824 65.9347 34.0154 65.9347H0.666969C0.476406 66.0299 0.190563 66.0299 0 65.8394Z" fill="#212052"/>
<path d="M57.3594 35.8258V64.2196C57.3594 64.6007 57.2641 64.696 56.8829 64.696H48.2123C47.8312 64.696 47.7359 64.6007 47.7359 64.2196V62.8856C47.7359 62.314 47.4501 62.0281 46.7831 62.0281C45.8303 62.0281 45.8303 62.0281 45.8303 61.0753V58.6933C45.8303 55.8348 44.4964 53.8339 42.0191 52.5C40.6851 51.833 39.3512 51.5472 37.8267 51.4519C37.1597 51.4519 36.4927 51.3566 35.8258 51.2613C35.6352 51.2613 35.5399 51.166 35.5399 50.9755C35.3494 49.3557 35.0635 47.7359 34.7777 46.0209L33.6343 38.3031L32.4909 30.5853C32.1098 28.0127 31.7287 25.4401 31.3476 22.9628C31.2523 22.01 31.0617 21.1524 30.9664 20.1996C30.9664 20.0091 30.9664 19.8185 31.0617 19.6279C31.824 18.6751 32.4909 17.7223 33.539 17.0553C33.7296 16.9601 33.9202 16.7695 34.206 16.6742C35.1588 16.2931 36.0163 16.3884 36.7786 17.0553C37.255 17.4365 37.6361 17.9129 37.922 18.4846C38.8748 20.1996 39.7323 21.9147 40.5898 23.6297C41.5427 25.3448 42.3049 27.0599 43.2577 28.7749L44.1152 29.9183C44.5917 30.2994 44.8775 30.3947 45.3539 30.0136C45.8303 29.6325 46.2114 29.2513 46.5926 28.8702C46.8784 28.4891 47.2595 28.108 47.6407 27.7268C48.2123 27.1552 48.8793 27.0599 49.6416 27.5363C50.118 27.8221 50.5944 28.2032 50.8802 28.6797C51.3566 29.3466 51.9283 29.9183 52.5 30.49C53.9292 32.0145 55.3584 33.539 56.6924 35.1588C57.1688 35.2541 57.2641 35.5399 57.3594 35.8258Z" fill="#F4F4F4"/>
<path d="M57.3594 35.8258C56.3113 34.3966 54.9773 33.1579 53.8339 31.824C52.8811 30.6806 51.833 29.7278 50.9755 28.4891C50.6897 28.108 50.4038 27.8222 50.0227 27.5363C49.3557 27.0599 48.6888 27.1552 48.1171 27.7269C47.4501 28.2986 46.8784 29.0608 46.3067 29.6325C45.3539 30.5853 44.8775 30.49 44.02 29.442C43.2577 28.3939 42.7813 27.2505 42.2096 26.1071C40.8757 23.5345 39.5417 21.0572 38.2078 18.4846C37.922 18.0082 37.6361 17.6271 37.255 17.2459C36.3975 16.4837 35.4447 16.2931 34.4918 16.8648C33.7296 17.2459 33.1579 17.8176 32.5862 18.4846C32.2051 18.8657 31.9192 19.3421 31.5381 19.7233C31.4428 19.8185 31.3476 20.0091 31.3476 20.1044C31.157 18.8657 30.9664 17.6271 30.7759 16.2931C30.2995 13.3394 29.9183 10.3857 29.4419 7.43197C29.1561 5.33578 28.8702 3.33488 28.5844 1.23869C28.5844 0.952845 28.5844 0.857563 28.8702 0.952845H56.9782C57.5499 0.952845 57.5499 0.857563 57.5499 1.52453V35.2541C57.3594 35.54 57.3594 35.7305 57.3594 35.8258Z" fill="#1A96C8"/>
<path d="M23.2486 44.2106C24.2967 44.02 25.2495 44.1153 26.2976 44.2106C27.0599 44.3059 27.6316 44.02 27.9174 43.2578C28.4891 41.8286 28.2985 41.0663 26.9646 40.3993C26.3929 40.1135 25.8212 40.0182 25.1543 39.8276C25.059 39.8276 24.9637 39.8276 24.8684 39.7324C25.3448 39.256 25.6307 38.7796 25.5354 38.1126C25.5354 37.1598 24.9637 36.6834 24.1062 36.5881C23.1534 36.4928 22.2958 36.9692 21.5336 37.4456L20.3902 38.3031C20.2949 38.0173 20.3902 37.6362 20.2949 37.3503C20.1996 36.6834 20.0091 36.1117 19.628 35.6353C19.1515 35.0636 19.2468 34.1108 19.628 33.5391C20.3902 32.491 20.8666 31.2523 21.1525 30.0137C21.2477 29.7278 21.4383 29.6325 21.6289 29.442C22.9628 28.2986 24.2967 27.1552 25.5354 26.0119C26.2976 25.2496 26.9646 24.4874 27.7269 23.8204C27.8221 23.7251 28.0127 23.5345 28.2033 23.5345C28.5844 25.8213 28.9655 28.108 29.2514 30.3948C29.7278 33.158 30.1089 35.9211 30.5853 38.589C31.0617 41.4474 31.5381 44.4011 31.9192 47.2596C32.1098 48.2124 32.2051 49.2605 32.3956 50.2133C32.4909 50.6897 32.4909 50.6897 32.0145 50.5944L30.5853 50.3086C30.3947 50.3086 30.2995 50.2133 30.2995 50.0227C30.3947 49.5463 30.1089 49.2605 29.7278 49.0699C29.2514 48.7841 28.6797 48.5935 28.108 48.4982C28.0127 48.4982 27.8221 48.4982 27.8221 48.403C27.3457 47.736 26.5835 47.4502 25.8212 47.1643C26.4882 46.9737 27.0599 46.7832 27.6316 46.7832C28.2985 46.8785 29.0608 46.6879 29.7278 46.8785C29.8231 46.8785 29.9183 46.8785 29.9183 46.7832C29.9183 46.5926 30.0136 46.4973 29.9183 46.3068C29.9183 46.2115 29.8231 46.2115 29.7278 46.2115C28.6797 45.5445 27.5363 44.9728 26.2976 44.687C25.3448 44.4964 24.4873 44.2106 23.5345 44.2106C23.4392 44.3059 23.1534 44.4964 23.2486 44.2106Z" fill="#F4F4F4"/>
<path d="M28.108 23.6297L26.6788 25.0589C24.8684 26.8693 22.9628 28.5843 21.0572 30.1088C21.343 28.6796 21.2477 27.1551 20.9619 25.7259C20.7713 24.9636 20.9619 24.2014 20.8666 23.4391C20.676 21.6288 20.4855 19.9137 20.1044 18.1034C20.1044 17.9128 20.0091 17.8176 20.1044 17.627C20.8666 13.911 21.1525 10.0998 21.4383 6.38379C21.5336 4.66873 21.6289 3.04895 21.7241 1.33388C21.7241 1.04804 21.8194 0.952759 22.1053 0.952759H24.2967C24.5826 0.952759 24.5826 1.04804 24.6779 1.2386L26.9646 16.1025L28.108 23.2486V23.6297Z" fill="#1B96C8"/>
<path d="M21.0572 42.8765C22.3911 41.7332 23.7251 41.0662 25.5354 41.352C26.0118 41.4473 26.3929 41.6379 26.7741 42.019C26.9646 42.3048 26.9646 42.4954 26.6788 42.5907C26.2024 42.7813 25.8212 42.686 25.3448 42.686C24.0109 42.4954 22.7722 42.4954 21.4383 42.8765H21.0572Z" fill="#FEFEFE"/>
<path d="M20.2949 40.9709C20.2949 40.7804 20.3902 40.6851 20.4855 40.5898C21.2477 39.8276 22.01 38.97 23.0581 38.3983C23.2486 38.3031 23.5345 38.2078 23.8203 38.0172C23.9156 38.0172 24.0109 38.0172 24.1062 38.1125C24.2015 38.2078 24.2015 38.3031 24.1062 38.3983C24.0109 38.4936 23.9156 38.6842 23.8203 38.7795C22.9628 39.5417 22.1053 40.304 20.9619 40.7804C20.8666 40.8756 20.676 40.8757 20.5808 40.9709H20.2949Z" fill="#FDFDFE"/>
<path d="M20.1996 37.4456C20.3902 37.7314 20.2949 38.1125 20.2949 38.3984C20.1996 38.1125 20.2949 37.8267 20.1996 37.4456Z" fill="#AEABC1"/>
<path d="M23.249 44.2106C23.249 44.306 23.4399 44.306 23.5353 44.4015H23.0581C23.0581 44.2106 23.0581 44.2106 23.249 44.2106Z" fill="#534F77"/>
</g>
<defs>
<clipPath id="clip0_2412_13543">
<rect width="210" height="69.9365" fill="white"/>
</clipPath>
</defs>
</svg>
