<svg width="151" height="90" viewBox="0 0 151 90" fill="none" xmlns="http://www.w3.org/2000/svg">
<path d="M11.0953 62.6973C10.7644 62.6973 10.4623 63.1279 10.3402 63.7256V64.995H7.09484C6.6225 69.0795 6.86349 77.1777 7.81461 77.1777H3.28394C4.23506 77.1777 4.47605 69.0795 4.0037 64.995H0.755112V63.7256C0.629796 63.1279 0.330964 62.6973 0 62.6973H11.0953Z" fill="white"/>
<path d="M19.8039 64.995H14.8812C14.788 65.808 14.7206 66.7817 14.6852 67.8197H19.7557V70.1175H14.6467C14.6531 71.8528 14.7302 73.5721 14.8812 74.88H22.1014V77.1777H11.0703C12.3428 77.1777 12.3428 62.6973 11.0703 62.6973H22.1014L19.8039 64.995Z" fill="white"/>
<path d="M31.8032 62.6973C30.5308 62.6973 34.1457 77.1777 35.4181 77.1777H30.8875C31.3148 77.1777 31.1895 75.5356 30.7846 73.3568H26.7038C26.2989 75.5356 26.1736 77.1777 26.601 77.1777H22.0703C23.3428 77.1777 26.9577 62.6973 25.6852 62.6973H31.8H31.8032ZM30.3059 71.0623C29.8592 69.1309 29.2937 67.0903 28.7474 65.5059C28.2044 67.087 27.6357 69.1277 27.189 71.0623H30.3059Z" fill="white"/>
<path d="M41.6103 62.6973C41.0544 62.6973 41.9027 65.477 43.1431 68.6006C44.3802 65.477 45.2317 62.6973 44.6758 62.6973H50.8838C49.6113 62.6973 49.6113 77.1777 50.8838 77.1777H46.3531C47.2496 77.1777 47.5131 69.9696 47.1468 65.7245C45.5915 68.8031 43.715 73.4371 43.1431 75.7541C42.5711 73.4371 40.6978 68.8031 39.1393 65.7245C38.7698 69.9696 39.0333 77.1777 39.933 77.1777H35.4023C36.6748 77.1777 36.6748 62.6973 35.4023 62.6973H41.6103Z" fill="white"/>
<path d="M61.4123 70.1175C61.4219 73.6781 61.74 77.1777 62.3666 77.1777H57.8359C59.1084 77.1777 59.1084 62.6973 57.8359 62.6973H62.3666C61.8557 62.6973 61.5504 65.0271 61.4508 67.8197H66.4924C66.3928 65.0271 66.0875 62.6973 65.5766 62.6973H70.1073C68.8349 62.6973 68.8349 77.1777 70.1073 77.1777H65.5766C66.2032 77.1777 66.5213 73.6781 66.531 70.1175H61.4155H61.4123Z" fill="white"/>
<path d="M75.2807 62.6973C74.0082 62.6973 74.0082 77.1777 75.2807 77.1777H70.75C72.0224 77.1777 72.0224 62.6973 70.75 62.6973H75.2807Z" fill="white"/>
<path d="M82.2705 62.6973C81.7146 62.6973 82.5629 65.477 83.8032 68.6006C85.0403 65.477 85.8918 62.6973 85.3359 62.6973H91.5439C90.2715 62.6973 90.2715 77.1777 91.5439 77.1777H87.0132C87.9097 77.1777 88.1732 69.9696 87.8069 65.7245C86.2517 68.8031 84.3752 73.4371 83.8032 75.7541C83.2312 73.4371 81.3579 68.8031 79.7995 65.7245C79.43 69.9696 79.6935 77.1777 80.5932 77.1777H76.0625C77.3349 77.1777 77.3349 62.6973 76.0625 62.6973H82.2705Z" fill="white"/>
<path d="M101.846 62.6973C100.574 62.6973 104.189 77.1777 105.461 77.1777H100.93C101.358 77.1777 101.232 75.5356 100.828 73.3568H96.7468C96.3419 75.5356 96.2166 77.1777 96.6439 77.1777H92.1133C93.3857 77.1777 97.0006 62.6973 95.7282 62.6973H101.843H101.846ZM100.346 71.0623C99.899 69.1309 99.3334 67.0903 98.7872 65.5059C98.2441 67.087 97.6754 69.1277 97.2288 71.0623H100.346Z" fill="white"/>
<path d="M109.972 62.6973C109.021 62.6973 108.78 70.7955 109.252 74.88H113.828L115.753 77.1777H105.441C106.714 77.1777 106.714 62.6973 105.441 62.6973H109.972Z" fill="white"/>
<path d="M125.67 62.6973C124.398 62.6973 128.013 77.1777 129.285 77.1777H124.755C125.182 77.1777 125.057 75.5356 124.652 73.3568H120.571C120.166 75.5356 120.041 77.1777 120.468 77.1777H115.938C117.21 77.1777 120.825 62.6973 119.552 62.6973H125.667H125.67ZM124.173 71.0623C123.726 69.1309 123.161 67.0903 122.615 65.5059C122.072 67.087 121.503 69.1277 121.056 71.0623H124.173Z" fill="white"/>
<path d="M139.214 62.6973C138.587 62.6973 136.441 66.4893 134.584 70.3328C134.359 73.2025 134.651 77.1777 135.464 77.1777H130.933C131.746 77.1777 132.039 73.2025 131.814 70.3328C129.957 66.4893 127.81 62.6973 127.184 62.6973H131.714C131.235 62.6973 131.997 64.8954 133.199 67.6398C134.401 64.8954 135.162 62.6973 134.683 62.6973H139.214Z" fill="white"/>
<path d="M147.385 62.6973C146.113 62.6973 149.728 77.1777 151 77.1777H146.469C146.897 77.1777 146.772 75.5356 146.367 73.3568H142.286C141.881 75.5356 141.756 77.1777 142.183 77.1777H137.652C138.925 77.1777 142.54 62.6973 141.267 62.6973H147.382H147.385ZM145.888 71.0623C145.441 69.1309 144.876 67.0903 144.329 65.5059C143.786 67.087 143.218 69.1277 142.771 71.0623H145.888Z" fill="white"/>
<path d="M84.4666 5.49563L84.4345 5.59846C84.4216 5.63381 84.412 5.66595 84.3959 5.69808L82.9789 8.8217L82.7475 9.10771L81.5201 11.2351C81.4526 11.3669 81.4012 11.5918 81.4012 11.7396L81.4172 13.1215C81.4204 13.2918 81.4719 13.4589 81.5715 13.5971L82.4005 14.799L82.0663 15.0175L81.7 14.5419H81.4815L81.4269 15.13C81.414 15.2617 81.3755 15.3839 81.308 15.4899L80.9192 16.1455L81.1891 16.0941L81.3112 18.1122L81.5329 19.7929L81.851 22.0906C81.9185 22.3959 81.8125 22.7141 81.5747 22.9198L80.675 23.6974V22.3702C80.675 22.2706 80.6589 22.1678 80.6236 22.0714L79.9134 19.2402L79.8267 19.0217C79.6789 18.6553 79.3543 18.4786 79.0298 18.4786C78.686 18.4786 78.3389 18.6778 78.2072 19.0699C78.1783 19.1566 78.1622 19.2498 78.1622 19.3398V19.7383C78.1622 19.854 78.1429 19.9697 78.0947 20.0757L77.812 21.9685C77.767 22.0746 77.7445 22.1903 77.7445 22.306V23.3054L77.6802 23.8163L77.7091 24.4558C77.7156 24.6197 77.6738 24.7868 77.5903 24.9282L77.4392 25.1821C77.3075 25.4071 77.285 25.6834 77.3782 25.9245L77.5099 26.2747L77.3139 26.3808L77.3975 27.2517L77.1436 27.5088L75.6527 27.4349L75.8615 26.9817L75.9579 26.5543L76.2407 26.4065L76.3757 25.7606L76.4238 22.2417L76.5813 21.8721L76.6938 19.9279C76.7002 19.8154 76.6777 19.7094 76.6456 19.6033C76.4238 18.9092 76.6745 18.0801 76.8351 17.6655C76.8994 17.5081 76.9219 17.3313 76.8994 17.161C76.8384 16.7271 76.9444 16.2965 77.0151 16.0651C77.0504 15.9462 77.0633 15.8273 77.0504 15.7052L76.8512 14.0406L76.1539 14.8986L75.823 14.6415L76.5813 13.7481C76.7098 13.5971 76.7805 13.4107 76.7837 13.2115L76.8062 12.2345C76.8094 11.9935 76.7098 11.7589 76.5363 11.5918L74.8654 8.3975L74.1328 7.32095L72.8154 5.45385C72.8025 5.42171 72.7865 5.39279 72.7736 5.36708C72.7736 5.36708 71.9831 4.52833 72.0924 4.43193C72.192 4.34837 72.4908 4.63438 72.5615 4.7083C72.4748 4.60225 72.0828 4.12021 72.2016 4.05915C72.3173 3.99488 72.6001 4.39015 72.6772 4.49298C72.6129 4.37087 72.298 3.80527 72.4041 3.75707C72.5133 3.71208 72.9053 4.36444 72.9503 4.44478C72.9246 4.36444 72.7254 3.75386 72.8668 3.70244C73.0178 3.64781 73.4066 4.60867 73.4066 4.60867C73.4066 4.60867 73.609 3.93703 73.7504 4.03023C73.8854 4.12021 73.5962 4.94289 73.5962 4.94289C73.5544 5.16463 73.6026 5.39279 73.7279 5.58239L75.1193 6.74572L76.064 8.23361L76.3532 8.48427C76.3756 8.50355 76.4014 8.52926 76.4206 8.55176L76.9444 9.19769L77.3525 9.59618L77.7927 9.88861L78.1815 9.36801C78.2297 9.30374 78.2425 9.22019 78.2136 9.14627L78.0851 8.81206L77.9341 8.25611C77.8698 7.98616 77.9501 7.62624 78.1365 7.41736L78.461 7.04779C78.5735 6.92889 78.7277 6.85819 78.8884 6.85819C79.0394 6.85819 79.1808 6.90961 79.2965 7.00923L79.6949 7.34666C79.8524 7.48163 79.9584 7.66802 79.9873 7.87369L80.042 8.24647C80.0709 8.44249 80.0355 8.63531 79.9359 8.80242L79.7496 9.12699C79.6885 9.23304 79.7142 9.36801 79.8106 9.44835L80.1801 9.75043L81.1409 8.8217L81.4654 8.64174L81.7643 8.21433C81.7932 8.17898 81.8285 8.14363 81.8639 8.11149L82.0502 7.95724C82.1338 7.88976 82.2013 7.8062 82.2527 7.71622L82.8921 6.56897L83.583 5.40886C83.599 5.37994 83.6119 5.35423 83.6151 5.32209L84.4634 5.49563H84.4666Z" fill="white"/>
<path d="M72.7016 27.4802C72.6373 27.3934 72.5442 27.3227 72.4799 27.236C72.3931 27.1267 72.3449 27.0078 72.2903 26.8985C72.2742 26.8664 72.2517 26.8278 72.226 26.7957C72.1232 26.6607 72.3128 26.4872 72.2485 26.3779C72.226 26.3297 72.1843 26.2976 72.1393 26.2751C72.1393 26.2269 72.1457 26.1883 72.1553 26.1401C72.2742 26.0694 72.3514 25.9987 72.3674 25.9345C72.4156 25.6966 72.3899 25.4139 72.3674 25.0379C72.3449 24.7004 72.422 24.2891 72.406 23.8167C72.406 23.7621 72.406 23.7074 72.3996 23.6528C72.3449 23.1097 72.361 22.5666 72.4156 22.3288C72.4638 22.091 72.4542 22.046 72.4156 21.8564C72.3674 21.6668 72.496 21.519 72.4478 21.2265C72.3931 20.9341 72.3385 20.722 72.2517 20.3685C72.1586 20.0214 72.1168 18.7938 72.014 18.3921C71.9433 18.0836 71.879 17.0071 71.6348 16.3194C71.5545 16.0976 71.4613 15.9177 71.3424 15.8148C71.3906 15.7602 71.397 15.7056 71.3906 15.6509C71.5159 15.5963 71.6573 15.516 71.6894 15.4388C71.728 15.3521 71.4838 15.156 71.2942 15.0146C71.2942 14.96 71.2942 14.8957 71.3006 14.8186C71.307 14.7254 71.3006 14.5744 71.2942 14.4009C71.3103 14.3526 71.3328 14.3077 71.3488 14.2659C71.3649 14.2113 71.381 14.1566 71.3713 14.1148C71.3777 13.9188 71.2781 13.501 71.3488 13.5332C71.4292 13.5653 71.728 13.8802 71.728 13.8802C71.728 13.8802 71.8629 13.9895 71.879 13.8642C71.879 13.7389 71.4227 13.2825 71.4452 13.1154C71.4677 12.9579 71.4227 12.5562 71.381 12.2574C71.3745 12.1867 71.3424 12.0838 71.3103 11.9585C71.3649 11.7786 71.4292 11.6115 71.4516 11.5793C71.6091 11.3994 71.6959 10.9655 71.7505 10.8691C71.8854 10.6249 72.0429 10.4288 72.1136 10.3903C72.1778 10.3678 72.2325 10.2392 72.0429 10.0689C72.0268 10.0529 72.0043 10.0368 71.9883 10.0207C72.1843 9.68972 72.3578 9.37479 72.4445 9.20125C72.6566 8.72243 72.7273 8.06043 72.8141 7.35986C72.8783 6.82319 72.9651 6.20939 73.0261 5.7627L73.0486 5.59881C73.0647 5.48955 73.0808 5.38671 73.0872 5.31601C73.1354 5.26781 73.2286 5.19068 73.2993 5.11034C73.3218 5.08785 73.3378 5.07178 73.3475 5.04607C73.4278 4.94324 73.4342 4.82433 73.5049 4.61224C73.5917 4.368 73.5852 4.30373 73.5435 4.2266C73.537 4.2266 73.537 4.22018 73.537 4.22018C73.4888 4.13341 73.4117 4.18804 73.3796 4.11734C73.3571 4.04664 73.2864 4.06271 73.2157 4.037C73.1772 4.03057 73.145 3.99844 73.1129 3.98237C73.1065 3.97594 73.1065 3.9663 73.1065 3.9663C73.084 3.94381 73.0583 3.92774 73.0261 3.91167C72.9554 3.87311 72.9233 3.92774 72.8687 3.90524C72.8526 3.89882 72.8366 3.88918 72.8205 3.88275C72.7819 3.86025 72.7273 3.83454 72.6791 3.86668C72.6566 3.87311 72.6405 3.91488 72.6148 3.95345C72.6148 3.97594 72.6084 3.99201 72.5988 4.01772C72.5602 4.12056 72.5345 4.23946 72.5345 4.23946C72.5345 4.23946 72.512 4.24589 72.4799 4.25553C72.4317 4.27159 72.3771 4.30373 72.3385 4.34229C72.3224 4.35836 72.316 4.37443 72.316 4.3905C72.2935 4.42263 72.2839 4.45477 72.2839 4.48369C72.2775 4.50619 72.2775 4.5319 72.2775 4.54796V4.57046C72.2775 4.64116 72.2999 4.75042 72.3706 4.85326C72.4028 4.89182 72.4349 4.97216 72.4735 5.04286C72.496 5.09106 72.5217 5.14569 72.5377 5.17783C72.4188 5.49276 72.2389 6.15476 72.1425 6.3765C72.0236 6.6593 71.4741 8.53604 71.3553 8.80919C71.3167 8.90239 71.2299 9.0695 71.1175 9.24946C71.0853 9.24946 71.0628 9.24303 71.0371 9.24946C70.944 9.26552 70.5262 9.83112 70.4138 9.86325C70.3816 9.86968 70.327 9.91146 70.2627 9.95645C70.1696 9.91788 70.0732 9.90182 70.0025 9.89218C69.9703 9.89218 69.8996 9.8986 69.8065 9.90824C69.7743 9.79898 69.7358 9.69615 69.829 9.57724C69.9157 9.46798 69.9703 9.26231 70.0025 9.05021C70.0346 9.07271 70.0732 9.08878 70.1214 9.07271C70.2403 9.01808 70.2467 8.54568 70.2467 8.49747C70.2403 8.45891 70.2081 8.41071 70.1535 8.39464C70.1535 8.3625 70.1599 8.34001 70.1599 8.30787C70.176 8.2436 70.1374 8.25324 70.1214 8.23717C70.0828 8.21468 69.9864 7.74871 69.8836 7.39521C69.7743 7.04171 69.1445 6.99351 68.82 7.03207C68.4987 7.06421 68.1356 7.27631 68.0231 7.49805C68.0167 7.51411 68.007 7.53018 68.007 7.54625C68.0006 7.57839 67.991 7.60088 67.9846 7.63302L67.9621 7.75192C67.9139 8.06043 67.9074 8.47498 67.9074 8.47498C67.8849 8.52961 67.8849 8.59388 67.9235 8.69672C67.9621 8.80598 68.0167 9.23339 68.1516 9.17554C68.2063 9.39728 68.293 9.60938 68.428 9.68651C68.5212 9.74114 68.4987 9.8986 68.4987 10.0336C68.3027 10.0721 68.0649 10.1428 67.8849 10.1975C67.5861 10.2907 67.6086 10.5445 67.6086 10.5445C67.6086 10.5445 67.5379 10.702 67.4576 10.9141C67.3644 10.9366 67.268 10.9687 67.2294 11.0073C67.1491 11.0876 67.0559 11.0619 67.0013 11.0876H66.9788C66.9467 11.0876 66.8921 11.1037 66.8214 11.1808C66.7282 11.2997 66.741 11.3319 66.6414 11.4315C66.5482 11.5343 66.4904 11.6757 66.3747 11.8814C66.2655 12.0935 66.1305 13.1636 66.1369 13.591L66.1434 14.7415C66.1273 15.095 66.1755 15.4196 66.1498 15.622C66.1337 15.8438 66.1562 15.9852 66.2205 16.1876C66.2847 16.3997 66.3297 17.2352 66.3619 17.457C66.3844 17.5984 66.4968 17.653 66.5579 17.8972C66.5579 17.8972 66.59 18.4082 66.5964 18.6524C66.5964 18.9031 66.5643 19.218 66.6511 19.353C66.7378 19.488 66.831 19.8961 66.9274 19.9443C67.0142 19.9925 67.0463 19.9379 67.0302 19.88C67.0238 19.8736 67.0142 19.8415 67.0077 19.7933C67.0559 19.88 67.0945 19.9443 67.1266 19.9507C67.1973 19.9732 67.1748 19.8254 67.1748 19.8254C67.1748 19.8254 67.1684 19.8093 67.1684 19.7868C67.1909 19.819 67.2166 19.835 67.2391 19.8093C67.2937 19.729 67.2005 19.5008 67.2166 19.4623C67.2327 19.4141 67.2166 19.2245 67.2102 19.1313C67.2102 19.0445 67.1298 18.7938 67.117 18.7231C67.1555 18.7713 67.2744 18.9352 67.3387 18.9288C67.4094 18.9288 67.3323 18.7328 67.3226 18.7392C67.3162 18.7392 67.117 18.0161 67.0463 17.9133C67.0527 17.6851 67.0399 17.5116 67.0624 17.3477C67.0848 17.1517 67.1555 16.1748 67.1716 15.7506C67.178 15.7184 67.178 15.6702 67.178 15.6252C67.178 15.4999 67.2005 15.23 67.2327 14.9472C67.2648 14.6708 67.3033 14.3816 67.3355 14.192C67.3901 14.3173 67.3901 14.8058 67.374 15.1689C67.3676 15.3424 67.4608 15.5063 67.5797 15.6574C67.5797 15.7216 67.5958 15.7827 67.6279 15.8309C67.7307 15.9659 67.8721 16.0816 67.9653 16.1844C67.9331 16.2872 67.8849 16.4608 67.8721 16.7211C67.84 17.1999 67.8014 17.1774 67.8078 17.5309C67.8143 17.8844 67.6664 18.1833 67.6729 18.6107C67.6889 19.0349 67.7532 19.7354 67.6504 20.0439C67.5476 20.3524 67.4062 21.1783 67.4704 21.5318C67.5347 21.8853 67.7532 22.4284 67.6504 22.7851C67.5476 23.1386 67.4062 24.4787 67.4704 24.7615C67.5347 25.0443 67.5026 25.6581 67.4544 25.9184C67.4062 26.1787 67.374 26.3265 67.4544 26.3426H67.5476L67.5411 26.349C67.4704 26.4583 67.66 26.6479 67.5572 26.7732C67.4704 26.8921 67.4222 27.0335 67.3291 27.1685V29.4919L69.4402 29.3666L72.9458 29.1545L73.6302 27.2874C73.4246 27.3741 73.0775 27.4448 72.692 27.4834L72.7016 27.4802ZM69.1895 26.9435C69.0385 26.7861 68.8682 26.5965 68.6529 26.5579C68.6465 26.4711 68.6529 26.394 68.6754 26.2751C68.6818 26.259 68.6818 26.2365 68.6818 26.2205C68.8007 26.198 68.8778 26.1658 68.9035 26.1273C68.9967 25.9634 68.8875 25.4749 68.9421 25.3464C68.9967 25.2275 69.0674 24.6619 69.1156 24.3052C69.1638 23.9581 69.3052 23.9356 69.3213 23.3925C69.3277 22.8494 69.4948 21.9271 69.4948 21.5736C69.4948 21.2201 69.604 20.8409 69.6201 20.6513C69.6362 20.4617 69.6683 19.9507 69.7069 19.7065C69.7551 19.4558 69.7775 19.3594 69.8707 19.4558C69.9639 19.549 69.9575 19.5972 70.1149 20.0696C70.2724 20.5356 70.2242 21.1237 70.3206 21.5736C70.4138 22.0235 70.3688 22.8269 70.4845 23.1097C70.6001 23.3925 70.7833 23.9356 70.7769 24.3084C70.7704 24.5462 70.8154 24.9543 70.8572 25.3239C70.8797 25.5456 70.9054 25.7481 70.9118 25.8895C70.9279 26.2687 71.0211 26.6125 71.14 26.5675C71.1335 26.6704 71.1078 26.7636 71.0757 26.8985C71.0532 27.0014 71.0371 27.1267 71.0371 27.2617C71.0146 27.2392 70.9889 27.207 70.9729 27.1813C70.6194 26.6286 70.4073 27.4802 70.1921 27.1813C69.98 26.8825 69.7679 27.056 69.5623 27.1813C69.453 27.2456 69.3341 27.101 69.1831 26.9435H69.1895Z" fill="white"/>
<path d="M80.0664 19.2015V19.5967C80.0664 19.7124 80.0889 19.8281 80.1339 19.9342L80.4167 21.8302C80.4616 21.9362 80.4841 22.0519 80.4841 22.1676V23.1638L80.5452 23.678L80.5195 24.3175C80.513 24.4814 80.5548 24.6453 80.6384 24.7899L80.7894 25.0438C80.9211 25.2687 80.9436 26.4031 80.8504 26.6474L80.7187 26.9944L80.9147 27.1037L80.8279 27.9714L81.085 28.2284L82.5759 28.1545L82.3671 27.7014L82.2707 27.274L82.1454 26.7116L81.853 22.0873L80.0664 19.1982V19.2015Z" fill="white"/>
<path d="M83.1055 5.41853L88.4266 0.0518263C88.4909 -0.0156593 88.5937 -0.0188729 88.658 0.0518263L88.8186 0.222147C88.8797 0.286419 88.9343 0.350691 88.87 0.414963C88.8411 0.443885 88.8122 0.440671 88.8636 0.617419C88.9214 0.807022 89.1335 2.13424 89.2396 2.86051C89.307 3.31363 89.3038 3.24936 88.9375 3.17866L87.6265 2.84123L87.9189 4.29377C88.0057 4.74368 87.9671 4.73725 87.6137 4.59264L85.4383 3.75068L83.4878 5.61778L83.1055 5.42175V5.41853Z" fill="white"/>
<path d="M83.6172 5.31924C83.6172 5.31924 83.6782 5.0975 83.7361 4.78899C83.7939 4.48049 83.8678 4.26839 84.1442 4.2941C84.4205 4.31981 84.4526 4.25232 84.6551 4.35837C84.8575 4.46442 85.1467 4.62189 84.8414 5.05572C84.4815 5.56347 84.4333 5.60846 84.4333 5.60846L83.6204 5.31281L83.6172 5.31924Z" fill="white"/>
<path d="M68.8262 3.50945C68.8647 3.46767 68.9065 3.4259 68.9451 3.38412C68.9933 3.43232 69.0318 3.46767 68.9997 3.43875C69.5459 2.87637 70.1565 2.3879 70.8152 1.98299C70.9019 1.92836 70.9919 1.87694 71.0786 1.82552C71.2586 1.72269 71.4578 1.65199 71.6442 1.5588C72.7913 0.970707 73.7971 0.916076 73.7971 1.20209C73.7199 1.25672 72.8395 1.68091 71.9816 2.15974C71.9591 2.17259 71.9334 2.18866 71.9109 2.20151C71.7341 2.30435 71.6827 2.53573 71.7984 2.70605L72.0201 3.03062L71.9366 3.08847L76.4287 9.25857L76.4544 9.87237L75.9339 9.54137L71.4642 3.40983L71.4 3.45482L71.1461 3.08204C71.0337 2.91815 70.8087 2.87637 70.6449 2.99527C70.2432 3.28771 69.8673 3.6155 69.517 3.97542C69.5363 3.9947 69.5556 4.01077 69.5716 4.03005C69.5363 4.0654 69.5009 4.10396 69.4656 4.13931C69.4174 4.19073 69.3339 4.19716 69.2824 4.14895C69.1732 4.04933 68.9418 3.79867 68.8326 3.69905C68.778 3.65085 68.7748 3.56729 68.823 3.51266L68.8262 3.50945Z" fill="white"/>
<path d="M56.6208 39.1447L55.5797 38.5149C55.2102 38.3349 54.5804 38.3735 54.2173 38.5695L41.5475 45.3598C41.5475 45.3598 40.9498 45.6041 40.0919 44.8328C39.2404 44.0615 37.1164 41.8249 36.8401 41.3268C36.5638 40.8222 35.8472 40.9893 35.4552 41.1307C35.0696 41.2721 35.4006 40.2727 34.684 39.6653C34.1635 39.2251 32.2034 38.1678 31.1784 37.6247C30.8088 37.4287 30.359 37.4994 30.0666 37.7982C29.9156 37.9557 29.7196 38.1517 29.4689 38.396C28.611 39.2219 21.9178 44.8071 15.3563 48.0592C14.3153 48.5541 13.9939 47.3651 13.8686 47.0277C13.7497 46.6967 13.1906 46.5328 12.7504 46.8059C12.3166 47.0727 5.25391 51.6263 5.25391 51.6263C5.25391 51.6263 5.60736 52.4072 6.70951 51.7292C7.80522 51.0447 8.96199 50.6655 10.0641 50.1288C11.1598 49.5921 12.0885 49.319 12.3391 49.5054C12.5833 49.695 12.2363 50.1513 11.4651 50.8294C10.7004 51.5139 10.8674 52.1598 10.4561 52.5294C10.0384 52.8989 9.08731 53.4838 9.39257 53.6863C9.70746 53.8983 10.2023 54.104 10.5108 54.5379C10.8257 54.9717 11.629 54.9556 11.9053 54.5764C12.172 54.2069 14.8037 52.6322 16.9533 52.5904C19.1126 52.5519 21.7796 52.7543 22.1973 52.5679C22.6054 52.388 22.4191 53.0628 22.6472 53.5063C22.8753 53.9401 23.4987 54.043 23.8522 54.3097C24.2056 54.5764 24.7197 55.2481 25.1343 54.8046C25.221 54.7178 25.356 54.7178 25.5038 54.7564V54.75C25.4556 53.7184 27.8655 52.7415 28.6367 52.7415C29.4079 52.7415 31.8981 52.4105 33.4951 52.7415C35.1017 53.0725 35.2656 54.1201 36.4256 54.284C37.5824 54.4479 38.0258 52.8507 38.5271 52.5197C39.0219 52.1887 42.2191 52.6836 42.8906 52.2434C43.5526 51.8031 47.9386 49.2901 50.1526 48.3453C52.3569 47.4069 54.7347 45.0385 55.5091 43.888C56.2802 42.7375 55.8079 40.5876 56.367 39.8485C56.8458 39.2186 56.6176 39.1383 56.6176 39.1383L56.6208 39.1447ZM35.5098 44.3732C35.031 44.9549 33.2348 45.2409 32.4315 45.8129C31.6346 46.3946 31.4161 46.7963 31.2651 46.5456C31.1237 46.2853 31.776 44.2543 31.1237 43.4895C30.4715 42.7247 29.9573 40.8351 30.2176 39.9995C30.4682 39.1576 31.8467 39.0162 32.4315 39.6685C33.0131 40.3209 32.8975 41.1018 32.3383 41.4392C32.3383 41.4392 31.4161 41.706 31.6379 42.384C31.8499 43.0621 32.2677 43.7145 32.2195 44.0776C32.1648 44.4472 32.4315 44.4954 32.7946 44.0776C33.1641 43.6695 33.3055 42.6283 34.5201 42.6283C35.7347 42.6283 36.0014 43.7852 35.513 44.37L35.5098 44.3732ZM51.9777 44.3186C51.2772 44.8617 50.49 45.318 49.4906 46.1472C48.4978 46.9731 47.341 46.7224 47.0486 46.1472C46.7562 45.5655 48.0029 45.1638 49.5517 44.3893C51.0941 43.6181 51.9777 42.9561 51.9777 42.9561C52.6396 42.8307 52.6782 43.7819 51.9777 44.3186ZM53.5907 41.5453C53.4654 41.7959 52.6782 42.2458 52.4886 41.5453C52.299 40.8447 52.9288 40.5523 52.9288 40.5523C53.5522 40.2213 53.7161 41.2914 53.5907 41.5453Z" fill="white"/>
<path d="M146.379 55.7946L140.894 49.1714C140.489 48.7761 139.843 48.7889 139.454 49.2003L137.896 50.8521L135.155 48.4708C130.036 44.0232 125.345 39.1032 121.142 33.7782L120.968 33.5565C120.702 33.2191 120.239 33.1966 119.94 33.5051L116.277 37.2778C116.107 37.4514 116.01 37.6827 116.004 37.927L115.988 38.6275C115.978 39.1032 115.554 39.4663 115.085 39.402L114.288 39.2992C114.134 39.2799 113.983 39.357 113.912 39.4984C113.36 40.6103 110.371 44.1292 108.379 45.5689C106.846 46.6776 97.0073 36.9725 94.9187 34.8805C94.6809 34.6427 94.3114 34.5913 94.019 34.7584L92.1425 36.0792L89.302 33.8521C85.6131 30.9599 82.1364 27.8074 78.8975 24.417L76.3494 21.7497C75.8674 21.2452 75.0673 21.2323 74.5692 21.7176L64.1069 31.879C63.4739 32.6695 63.2361 33.1548 64.4218 32.4285C66.1184 31.3937 69.0392 29.5491 70.8419 28.5561C71.4652 28.2123 71.9954 28.0162 72.4613 27.9584C72.2493 27.6403 72.0372 27.1646 72.3617 26.8047C72.8887 26.2198 73.8334 25.124 74.0198 25.0919C74.1515 25.0694 74.3957 25.3715 74.5981 25.6768C74.6496 25.7571 74.656 25.8567 74.611 25.9403C74.4182 26.297 74.4214 26.9943 74.7492 27.3285C75.0866 27.6724 75.1669 28.3055 74.4278 28.8903C74.9966 29.5845 76.0055 30.9792 76.3269 31.8147C76.7157 32.8206 74.9902 34.106 72.9016 35.3625C71.3817 36.2752 68.1459 37.5863 68.7179 38.1391C69.1035 38.5119 72.2942 37.3517 74.219 37.7663C74.9934 37.9334 74.8199 38.7882 73.3546 40.1701C72.6091 40.8706 72.5674 42.4067 72.3617 43.6504C72.1561 44.8941 69.6851 46.1217 68.3869 46.8801C66.5779 47.9373 66.0734 50.1162 67.1434 49.9458C68.8336 49.6759 69.6015 47.8988 72.0308 47.6256C73.4285 47.4682 73.2904 48.3455 72.8758 49.0974C72.3135 50.1226 70.2346 49.8719 69.8747 53.484C69.7815 54.4288 69.5983 55.2226 69.4312 55.801H100.368C99.4976 55.4989 97.5793 54.5316 94.697 51.4241C90.6387 47.0472 91.548 41.9793 91.548 41.9793C92.4606 40.7357 92.708 43.7179 96.1879 47.4457C99.3337 50.8167 104.295 55.0233 105.217 55.801H119.134V55.1776C119.134 55.1776 116.994 53.6993 115.557 53.2591C114.121 52.8188 111.859 52.0154 110.699 51.2152C109.539 50.415 109.263 49.8623 109.375 49.4767C109.484 49.091 110.288 49.6438 110.975 50.0551C111.666 50.4697 113.212 51.3245 113.572 51.2988C113.931 51.2698 113.462 50.7203 112.273 49.8912C111.085 49.0621 110.728 48.6475 110.204 47.9855C109.68 47.3235 109.899 46.8801 110.233 46.4944C110.564 46.1088 112.524 43.9525 112.524 43.9525C112.524 43.9525 113.131 44.1742 112.939 44.698C112.746 45.2218 112.601 45.5528 112.579 46.4462C112.559 47.3364 112.392 48.2491 112.971 48.2073C113.549 48.1655 113.385 47.4007 113.363 46.8608C113.34 46.3209 113.61 45.2668 114.005 44.5631C114.397 43.8593 114.834 43.1555 115.31 43.3612C115.786 43.5668 115.226 44.5823 115.165 45.4725C115.104 46.3627 115.165 46.7162 115.557 47.15C115.949 47.5838 116.923 49.2196 117.174 49.7691C117.424 50.3186 117.527 50.8778 117.794 50.9388C118.064 50.9999 118.208 50.8135 118.083 50.0262C117.958 49.2388 117.836 47.2914 118.353 46.1313C118.87 44.9712 119.41 43.7082 119.741 43.0462C120.072 42.3842 120.384 41.5744 120.239 41.057C120.094 40.5396 119.182 42.0918 118.706 42.7538C118.231 43.4158 117.607 42.8566 117.607 42.2975V38.1359C117.607 38.1359 117.463 37.4321 118.167 36.8119C118.87 36.1916 120.03 35.4654 120.422 35.2597C120.814 35.054 121.601 35.5489 121.499 36.2527C121.396 36.9565 121.042 37.972 121.624 38.5311C122.206 39.0903 122.495 40.2504 122.058 41.3463C121.621 42.4421 120.506 44.1003 120.92 44.1228C121.335 44.1421 122.08 43.5026 122.225 43.9975C122.369 44.4956 122.206 45.4693 120.879 47.3332C119.555 49.1971 119.513 51.0417 119.844 52.1375C120.156 53.1723 120.666 55.0394 120.724 55.7978H141.716C141.964 55.7978 142.115 55.5279 141.983 55.3158L140.662 53.2044C140.508 52.9602 140.768 52.6645 141.029 52.7834L146.09 56.1866C146.334 56.2991 146.552 55.9906 146.369 55.7946H146.379Z" fill="white"/>
<path d="M67.2421 37.1044C69.3115 35.5715 72.6532 33.4216 73.6493 32.5572C74.3916 31.9144 73.4019 31.7698 72.8846 31.2942C72.5054 30.9439 72.8428 30.1341 72.2002 29.861C71.4226 29.53 70.4457 30.5519 69.3564 31.3103C68.0872 32.194 68.4182 32.0269 66.1657 33.518C64.5494 34.5882 60.9602 37.1976 59.013 38.5441C57.7341 39.4278 57.2393 39.9324 57.3003 40.4915C57.3614 41.0507 58.0169 42.3072 57.6313 43.8947C57.2457 45.479 54.9258 46.6166 53.3223 48.0853C51.7222 49.5539 48.6278 53.3524 47.4678 54.7888C47.1529 55.1809 46.8798 55.5119 46.6484 55.7979H51.5261C52.8918 55.1488 55.7516 53.5195 56.7445 52.4011C57.7373 51.2828 58.8138 49.9588 59.7681 49.2518C60.7192 48.548 60.3079 47.1405 59.3536 47.0987C58.4025 47.0569 60.0991 45.7747 62.2102 44.6949C64.3213 43.6184 66.5995 41.7127 66.9722 41.2981C67.3449 40.8836 67.1746 40.5622 66.7666 40.6779C66.2139 40.829 65.2306 41.4428 63.5758 42.0855C62.8271 42.3779 61.1884 42.1947 62.4994 40.8707C62.9942 40.3694 65.1632 38.6373 67.2325 37.1044H67.2421Z" fill="white"/>
<path d="M71.1551 14.1077C71.1551 14.1077 71.9649 14.7022 72.0773 14.9368C72.1384 15.0686 72.193 16.0551 72.1994 16.1419C72.2059 16.2287 71.5985 16.354 71.5857 16.309C71.5728 16.264 70.7695 15.3449 70.7695 15.3449V14.5448L71.1519 14.1045L71.1551 14.1077Z" fill="white"/>
<path d="M35.2787 84.6404C35.0634 84.4669 34.8096 84.3415 34.5204 84.2644C34.2312 84.1841 33.9163 84.1455 33.5789 84.1455H31.2461V90.0007H32.6824V88.3425H33.2865C33.8617 88.3425 34.3469 88.2653 34.7421 88.1079C35.1373 87.9504 35.4426 87.7158 35.6515 87.4009C35.8603 87.086 35.9664 86.6971 35.9664 86.2311C35.9664 85.8648 35.9053 85.5498 35.7832 85.2895C35.6611 85.0292 35.494 84.8139 35.2787 84.6436V84.6404ZM34.2183 86.9703C34.0416 87.1149 33.7717 87.1888 33.4118 87.1888H32.6856V85.2992H33.5018C33.8328 85.2992 34.0802 85.3763 34.2441 85.5338C34.4079 85.6913 34.4883 85.9291 34.4883 86.2472C34.4883 86.5846 34.3983 86.8257 34.2216 86.9703H34.2183Z" fill="white"/>
<path d="M42.6691 88.1139C42.5663 87.9146 42.4088 87.7508 42.2032 87.6222C41.9975 87.4937 41.7019 87.4198 41.326 87.4005V87.3298C41.6151 87.2944 41.8658 87.2334 42.0746 87.1466C42.2835 87.0598 42.457 86.9538 42.5888 86.822C42.7237 86.6935 42.8201 86.5457 42.8812 86.3818C42.9422 86.2179 42.9744 86.0475 42.9744 85.8612C42.9744 85.6233 42.9358 85.4145 42.8587 85.2281C42.7816 85.0417 42.6723 84.881 42.5309 84.7428C42.3895 84.6079 42.2225 84.4954 42.0297 84.4054C41.8369 84.3186 41.6248 84.2511 41.3902 84.2062C41.1557 84.1612 40.9082 84.1387 40.6512 84.1387H38.2188V89.9938H39.6551V87.9789H40.3813C40.6062 87.9789 40.7861 88.0078 40.9211 88.0689C41.056 88.1267 41.1621 88.2199 41.236 88.3421C41.3099 88.4674 41.3645 88.6281 41.3999 88.8305L41.6216 89.9938H43.2089L42.8972 88.7502C42.8426 88.5188 42.7655 88.3035 42.6627 88.1075L42.6691 88.1139ZM41.2392 86.6903C41.0689 86.8156 40.8183 86.8767 40.4937 86.8767H39.6583V85.2988H40.5291C40.8536 85.2988 41.0978 85.3663 41.2553 85.5012C41.4159 85.6362 41.4963 85.8451 41.4963 86.1215C41.4963 86.3753 41.4095 86.5649 41.2392 86.6903Z" fill="white"/>
<path d="M46.8991 84.1455H45.4531V90.0007H46.8991V84.1455Z" fill="white"/>
<path d="M51.858 88.8116H51.8323L50.6241 84.1455H49.0625L50.9069 90.0007H52.7545L54.5989 84.1455H53.0373L51.858 88.8116Z" fill="white"/>
<path d="M57.4327 84.1455L55.4727 90.0007H57.0086L57.301 88.9627H59.4057L59.6949 90.0007H61.2469L59.2932 84.1455H57.4295H57.4327ZM57.5838 87.9504L58.3292 85.3056H58.3806L59.1197 87.9504H57.5838Z" fill="white"/>
<path d="M63.8366 84.1455H62.3906V85.3699H63.8366V90.0007H65.2729V85.3699H66.7189V84.1455H65.2729H63.8366Z" fill="white"/>
<path d="M70.0498 84.1455H68.9766V90.0007H70.0498H70.4129H73.1634V88.802H70.4129V87.5873H72.7553V86.5139H70.4129V85.341H73.1634V84.1455H70.4129H70.0498Z" fill="white"/>
<path d="M80.5535 84.1455H79.1172V90.0007H79.3646H80.5535H82.7803V88.7763H80.5535V84.1455Z" fill="white"/>
<path d="M86.4186 84.1455H84.9727V90.0007H86.4186V84.1455Z" fill="white"/>
<path d="M92.277 88.3071H92.2577L91.0623 84.1455H88.9062V90.0007H90.2365V85.5916H90.2526L91.5572 90.0007H92.8168L94.1406 85.5916H94.1599V90.0007H95.4902V84.1455H93.4498L92.277 88.3071Z" fill="white"/>
<path d="M99.4186 84.1455H97.9727V90.0007H99.4186V84.1455Z" fill="white"/>
<path d="M103.118 84.1455H101.672V85.3699H103.118V90.0007H104.557V85.3699H106.003V84.1455H104.557H103.118Z" fill="white"/>
<path d="M109.327 84.1455H108.254V90.0007H109.327H109.693H112.444V88.802H109.693V87.5873H112.036V86.5139H109.693V85.341H112.444V84.1455H109.693H109.327Z" fill="white"/>
<path d="M119.445 85.4785C119.239 85.0478 118.915 84.7201 118.478 84.4887C118.041 84.2573 117.475 84.1416 116.784 84.1416H114.824V89.9968H117.041C117.295 89.9968 117.552 89.9679 117.813 89.91C118.073 89.8522 118.317 89.7525 118.548 89.6176C118.78 89.4826 118.985 89.2962 119.169 89.0681C119.352 88.8367 119.496 88.5539 119.599 88.2165C119.702 87.879 119.753 87.4805 119.753 87.0178C119.753 86.42 119.651 85.9091 119.442 85.4785H119.445ZM118.089 88.149C117.97 88.3932 117.816 88.5635 117.623 88.6599C117.43 88.7531 117.221 88.8013 116.996 88.8013H116.261V85.3403H116.845C117.07 85.3403 117.269 85.3692 117.443 85.4303C117.617 85.4881 117.764 85.5845 117.886 85.7195C118.009 85.8545 118.102 86.0312 118.166 86.2562C118.23 86.4811 118.262 86.7575 118.262 87.0917C118.262 87.5512 118.205 87.9047 118.086 88.1522L118.089 88.149Z" fill="white"/>
</svg>
