<svg width="210" height="53" viewBox="0 0 210 53" fill="none" xmlns="http://www.w3.org/2000/svg">
<g clip-path="url(#clip0_2412_13559)">
<path d="M114.248 24.0184C115.583 25.1538 116.855 26.3622 118.057 27.6378C118.453 28.0856 118.867 28.526 119.219 28.9997C119.288 29.1203 119.398 29.2121 119.53 29.2587V0.762329H114.248V24.0184Z" fill="#EC8A23"/>
<path d="M136.039 28.8146C136.069 29.4382 135.89 30.054 135.532 30.5651C135.353 30.7732 135.131 30.9402 134.882 31.0547C134.632 31.1692 134.361 31.2285 134.087 31.2285C133.812 31.2285 133.541 31.1692 133.292 31.0547C133.042 30.9402 132.82 30.7732 132.641 30.5651C132.276 30.0566 132.093 29.4401 132.12 28.8146V0.773438H126.861V26.7681C127.231 27.0827 127.627 27.4046 128.023 27.7118C128.763 28.4186 129.544 29.0885 130.288 29.788C131.398 30.8131 132.434 31.8678 133.618 32.8411C134.803 33.8145 135.839 34.6916 137.071 35.5465C137.474 35.8252 137.881 36.0991 138.293 36.368C138.692 36.0492 139.054 35.6854 139.37 35.2837C140.667 33.6405 141.317 31.4842 141.32 28.8146V0.773438H136.039V28.8146Z" fill="#EC8A23"/>
<path d="M153.651 0.773438L150.85 10.0403L147.989 0.773438H142.597L148.144 18.8705L142.597 36.9713H147.989L150.85 27.7007L153.651 36.9713H159.04L153.533 18.8705L159.04 0.773438H153.651Z" fill="#EC8A23"/>
<path d="M169.498 28.8146C169.528 29.4382 169.349 30.054 168.991 30.5651C168.812 30.7732 168.59 30.9402 168.341 31.0547C168.092 31.1692 167.82 31.2285 167.546 31.2285C167.271 31.2285 167 31.1692 166.751 31.0547C166.501 30.9402 166.28 30.7732 166.101 30.5651C165.741 30.0547 165.562 29.4384 165.594 28.8146V0.773438H160.327V28.8146C160.327 31.4866 160.981 33.643 162.289 35.2837C162.934 36.0542 163.739 36.674 164.65 37.0993C165.56 37.5245 166.552 37.7449 167.557 37.7449C168.562 37.7449 169.554 37.5245 170.464 37.0993C171.375 36.674 172.18 36.0542 172.825 35.2837C174.123 33.6405 174.773 31.4842 174.776 28.8146V0.773438H169.498V28.8146Z" fill="#EC8A23"/>
<path d="M185.556 0.773402H178.332V36.9712H183.602V24.4254H185.556C185.832 24.4109 186.108 24.4635 186.359 24.5789C186.611 24.6943 186.83 24.8689 186.999 25.0879C187.357 25.5993 187.536 26.2149 187.506 26.8384V36.9712H192.78V26.8347C192.818 25.5799 192.496 24.3406 191.851 23.2634C191.556 22.7957 191.193 22.3743 190.774 22.0125C191.262 21.4036 191.661 20.7282 191.958 20.0066C192.531 18.5715 192.81 17.0364 192.78 15.4916V9.69981C192.78 7.013 192.129 4.85419 190.826 3.22335C190.205 2.42665 189.403 1.78905 188.486 1.36309C187.57 0.937132 186.566 0.735017 185.556 0.773402ZM187.506 15.4916C187.537 16.1152 187.358 16.7312 186.999 17.2421C186.831 17.4622 186.612 17.6379 186.36 17.754C186.109 17.8701 185.833 17.923 185.556 17.9083H183.602V7.28687H185.556C185.833 7.27209 186.109 7.32505 186.36 7.44113C186.612 7.55722 186.831 7.73293 186.999 7.95302C187.358 8.46281 187.536 9.07739 187.506 9.69981V15.4916Z" fill="#EC8A23"/>
<path d="M204.612 0.773438L201.322 13.2897L197.935 0.773438H192.547L198.675 20.5618V36.9713H203.949V20.5618L210 0.773438H204.612Z" fill="#EC8A23"/>
<path d="M0 36.9713H12.1054V30.4541H5.27369V21.0429H11.0507V14.5294H5.27369V7.2869H12.1054V0.773438H0V36.9713Z" fill="#FAF9F6"/>
<path d="M20.8468 24.877L17.8454 0.773438H12.457L18.0008 36.9713H23.7038L29.1329 0.773438H23.7445L20.8468 24.877Z" fill="#FAF9F6"/>
<path d="M30.6133 36.9713H42.7224V30.4541H35.887V21.0429H41.6677V14.5294H35.887V7.2869H42.7224V0.773438H30.6133V36.9713Z" fill="#FAF9F6"/>
<path d="M52.5518 0.773511H45.3389V36.9713H50.6089V24.4255H52.5518C52.828 24.411 53.1036 24.4636 53.355 24.579C53.6064 24.6944 53.8261 24.869 53.9951 25.088C54.3545 25.5987 54.5329 26.2148 54.5021 26.8385V36.9713H59.7758V26.8348C59.8127 25.5797 59.489 24.3403 58.8432 23.2635C58.5476 22.7959 58.1848 22.3744 57.7663 22.0126C58.2545 21.4037 58.6533 20.7283 58.9505 20.0067C59.5229 18.5716 59.8023 17.0365 59.7721 15.4917V9.69992C59.7721 7.01311 59.1208 4.85429 57.8181 3.22346C57.197 2.42728 56.3956 1.78999 55.4801 1.36406C54.5645 0.938121 53.5609 0.735719 52.5518 0.773511ZM54.5021 15.4917C54.5341 16.1156 54.3555 16.732 53.9951 17.2422C53.8269 17.4623 53.6075 17.638 53.356 17.7541C53.1045 17.8702 52.8284 17.9231 52.5518 17.9084H50.5977V7.28697H52.5518C52.8284 7.2722 53.1045 7.32515 53.356 7.44124C53.6075 7.55733 53.8269 7.73304 53.9951 7.95312C54.355 8.46217 54.5335 9.0773 54.5021 9.69992V15.4917Z" fill="#FAF9F6"/>
<path d="M63.0659 36.9713H75.1713V30.4541H68.3395V21.0429H74.1165V14.5294H68.3395V7.2869H75.1713V0.773438H63.0659V36.9713Z" fill="#FAF9F6"/>
<path d="M143.689 39.3953C143.59 39.31 143.478 39.2436 143.355 39.1992C142.121 38.6468 140.923 38.0151 139.769 37.3081C139.276 37.0046 138.782 36.6912 138.289 36.368C137.879 36.0991 137.472 35.8253 137.068 35.5465C135.821 34.7064 134.71 33.7664 133.6 32.8411C132.49 31.9159 131.38 30.8131 130.269 29.788C129.529 29.0885 128.737 28.4187 128.004 27.7118C127.608 27.4046 127.231 27.0827 126.842 26.7681C126.491 26.4717 126.12 26.1996 125.732 25.9539C125.575 25.8515 125.411 25.7612 125.24 25.6837C124.997 25.5469 124.719 25.4877 124.441 25.5142C124.164 25.5406 123.902 25.6515 123.689 25.8318C123.034 26.3462 122.538 26.9642 121.939 27.5194L121.794 27.66C121.378 28.0922 120.933 28.4953 120.462 28.8665C120.315 28.9788 120.158 29.0767 119.992 29.1588C119.852 29.2497 119.684 29.2878 119.518 29.2661C119.387 29.2195 119.277 29.1277 119.208 29.0071C118.856 28.5334 118.441 28.093 118.045 27.6452C116.847 26.3699 115.58 25.1616 114.248 24.0258C113.878 23.7223 113.508 23.4188 113.138 23.1302C112.622 22.7183 112.009 22.4456 111.358 22.3382C110.253 22.1075 109.219 21.6165 108.342 20.906C107.905 20.52 107.441 20.1651 106.954 19.8438C106.429 19.3627 105.922 18.8742 105.374 18.4116C104.826 17.949 104.515 17.9453 103.893 18.3339C103.616 18.5078 103.372 18.704 103.113 18.8964C102.831 19.1254 102.499 19.2829 102.143 19.3553C101.785 19.412 101.449 19.5641 101.17 19.7957L101.11 19.829V7.28691H105.403V0.773443H91.5327V7.28691H95.8294V25.3877C95.1237 26.1352 94.3588 26.8246 93.5422 27.449C92.8578 28.0421 92.1034 28.5492 91.2958 28.959C91.2958 28.9109 91.2958 28.8628 91.2958 28.8146V25.1138C91.2958 23.6335 91.2539 22.4541 91.17 21.5758C91.1233 20.8044 90.8547 20.0629 90.3965 19.4404C89.8094 18.7785 89.0826 18.2552 88.2686 17.9083C87.2817 17.4346 85.8828 16.8597 84.0718 16.1837C83.5907 16.0061 83.2132 15.858 82.9394 15.7359C82.7173 15.6534 82.519 15.5174 82.362 15.3399C82.2422 15.1686 82.1718 14.9676 82.1585 14.7589C82.128 14.4304 82.1145 14.1006 82.1178 13.7708V8.95968C82.0881 8.33612 82.2665 7.72037 82.6248 7.20919C82.8037 7.00109 83.0255 6.83409 83.2749 6.71961C83.5243 6.60512 83.7955 6.54585 84.07 6.54585C84.3444 6.54585 84.6156 6.60512 84.865 6.71961C85.1145 6.83409 85.3362 7.00109 85.5152 7.20919C85.8764 7.71916 86.0562 8.33549 86.0259 8.95968V10.8878H91.2995V8.93007C91.2995 6.24327 90.6482 4.08322 89.3455 2.44992C88.6994 1.68228 87.8932 1.06519 86.9835 0.641842C86.0738 0.218499 85.0826 -0.000854492 84.0792 -0.000854492C83.0759 -0.000854492 82.0846 0.218499 81.1749 0.641842C80.2652 1.06519 79.4591 1.68228 78.8129 2.44992C77.5078 4.08075 76.854 6.2408 76.8515 8.93007V13.7412C76.8515 15.2215 76.8934 16.3996 76.9773 17.2754C77.0218 18.0474 77.2906 18.7895 77.7508 19.4108C78.3359 20.075 79.0633 20.5987 79.8788 20.943C80.8657 21.4191 82.2646 21.9952 84.0755 22.6713C84.5714 22.8489 84.9489 22.9969 85.2191 23.1154C85.4368 23.2019 85.6309 23.3389 85.7853 23.5151C85.9035 23.6858 85.9738 23.8852 85.9889 24.0924C86.0192 24.4221 86.0328 24.7531 86.0296 25.0842V28.785C86.0599 29.4092 85.8801 30.0256 85.5188 30.5355C85.3399 30.7436 85.1182 30.9106 84.8687 31.0251C84.6193 31.1396 84.3481 31.1989 84.0737 31.1989C83.7992 31.1989 83.528 31.1396 83.2786 31.0251C83.0292 30.9106 82.8074 30.7436 82.6285 30.5355C82.2702 30.0244 82.0918 29.4086 82.1215 28.785V26.8828H76.8515V28.8146C76.8515 31.4866 77.5053 33.643 78.8129 35.2837C78.9673 35.476 79.1316 35.66 79.3051 35.8351C78.7254 36.1451 78.1243 36.4134 77.5065 36.6382C77.3289 36.7011 77.1365 36.7381 77.018 36.8936C77.0513 36.9935 77.1291 36.9972 77.229 36.9528C78.1653 36.8084 79.0794 36.6345 79.9565 36.4162C82.6137 35.7537 84.9896 34.6879 86.8326 32.8411C87.4026 32.2712 88.0465 31.7309 88.6535 31.1943C88.8907 30.9812 89.1748 30.8269 89.4828 30.7439C89.7908 30.661 90.1139 30.6517 90.4262 30.7169C90.6371 30.7502 90.8554 30.7502 91.0701 30.765H91.17C91.5401 30.8094 91.6474 30.9685 91.4957 31.2942C91.3461 31.564 91.1521 31.8067 90.9221 32.0122C90.1752 32.7215 89.3193 33.3062 88.387 33.7442C88.4277 33.9144 88.572 33.8256 88.6831 33.8182C89.2796 33.7594 89.8678 33.6353 90.4373 33.4481C91.3638 33.1512 92.2227 32.6746 92.9649 32.0455C94.1947 31.0759 95.1638 29.8155 95.785 28.3779C95.8025 28.3326 95.8222 28.2881 95.8442 28.2447C96.1178 27.7833 96.4831 27.3828 96.9174 27.0679C97.813 26.3277 98.8122 25.6726 99.6819 24.914C100.154 24.5391 100.522 24.0482 100.748 23.4891C100.85 23.1957 100.974 22.91 101.118 22.6343C101.516 21.8466 102.105 21.1711 102.831 20.6691C103.089 20.4661 103.336 20.25 103.572 20.0215C103.675 19.9326 103.782 19.8179 103.942 19.8401C104.101 19.8623 104.16 20.0363 104.204 20.1584C104.324 20.4084 104.369 20.6876 104.334 20.9626C104.3 21.2375 104.186 21.4967 104.008 21.709C103.142 22.6232 102.961 23.7075 102.617 24.7548C102.264 25.9116 101.757 27.0158 101.11 28.0375C100.811 28.495 100.473 28.9259 100.1 29.3254C99.5649 29.8804 98.9718 30.3766 98.3311 30.8057C99.539 30.8819 100.745 30.6259 101.817 30.0655C102.201 29.8617 102.558 29.6133 102.883 29.3254C103.067 29.1617 103.26 29.0085 103.46 28.8665C104.811 27.9375 106.184 28.0893 107.161 29.2884C107.715 29.98 108.32 30.6295 108.971 31.2313C109.595 31.8075 110.262 32.3358 110.966 32.8115C111.7 33.3092 112.487 33.7238 113.312 34.0476C112.839 34.2344 112.315 34.2501 111.832 34.092C110.807 33.8094 109.849 33.3264 109.012 32.6709C108.782 32.5118 108.568 32.3378 108.29 32.1269C108.405 32.6783 108.538 33.1705 108.601 33.6664C108.744 34.4512 108.694 35.2588 108.457 36.0202C108.009 37.2747 106.125 37.6115 105.048 36.7603C104.841 36.5938 104.637 36.431 104.423 36.2718C104.182 36.054 103.876 35.9232 103.553 35.9004C103.229 35.8776 102.907 35.9641 102.639 36.146C102.08 36.4458 101.558 36.7899 101.014 37.1082C99.592 37.996 97.9665 38.5056 96.292 38.5885C96.0462 38.6146 95.7987 38.622 95.5518 38.6107C95.4667 38.6107 95.3557 38.5885 95.3631 38.707C98.335 39.3024 101.37 39.52 104.397 39.3546C107.481 39.139 110.484 38.2725 113.208 36.8121C113.556 36.6308 113.897 36.4421 114.234 36.257C116.454 35.0061 118.471 33.5554 120.525 32.1491C121.276 31.6315 121.997 31.0705 122.683 30.4689C123.09 30.121 123.491 29.7658 123.885 29.4031C124.189 29.1187 124.524 28.8704 124.885 28.6629C125.044 28.5778 125.21 28.4372 125.425 28.5334C125.64 28.6296 125.625 28.7924 125.621 28.9553C125.602 29.4813 125.487 29.9995 125.281 30.4837C125.195 30.6965 125.098 30.904 124.988 31.1055C124.152 32.6376 122.805 33.8811 121.347 35.0542C120.977 35.3466 120.606 35.6316 120.292 35.9461C120.645 35.8964 120.985 35.7809 121.295 35.6057C122.196 35.147 123.123 34.7393 124.07 34.3844C124.381 34.2808 124.762 34.0661 125.059 34.303C125.355 34.5398 125.099 34.8544 124.936 35.1061C124.44 35.8243 123.837 36.4632 123.149 37.0009C122.734 37.3414 122.294 37.6633 121.85 37.9853C121.757 38.0482 121.657 38.1074 121.569 38.1703C120.702 38.8345 119.632 39.1772 118.541 39.14C117.609 39.1205 116.692 39.3781 115.906 39.8801C115.81 39.9393 115.721 40.006 115.629 40.0726C115.588 40.1088 115.551 40.1484 115.518 40.191L116.998 40.0319C117.968 39.8989 118.957 40.0148 119.87 40.3686C120.606 40.6016 121.388 40.6474 122.146 40.5019C124.605 40.2811 126.99 39.5514 129.152 38.3591C129.982 37.8444 130.921 37.5301 131.894 37.4413C132.211 37.422 132.53 37.4319 132.845 37.4709C133.297 37.5305 133.743 37.6233 134.181 37.7485C134.64 37.878 135.091 38.0334 135.539 38.2C136.794 38.7092 138.073 39.1538 139.373 39.5323C140.606 39.8634 141.899 39.9001 143.148 39.6396C143.267 39.6137 143.392 39.6063 143.518 39.5878L143.622 39.5656C143.729 39.5323 143.781 39.4989 143.689 39.3953Z" fill="#FAF9F6"/>
<path d="M58.7433 52.6776V46.3862H60.0534V48.7881H62.4996V46.3862H63.8097V52.6776H62.4996V49.865H60.0534V52.6776H58.7433Z" fill="#FAF9F6"/>
<path d="M76.9255 52.1188C76.3423 52.5927 75.6137 52.8514 74.8623 52.8514C74.1108 52.8514 73.3822 52.5927 72.799 52.1188C72.1576 51.5143 71.8381 50.6508 71.8405 49.5282C71.843 48.4056 72.1625 47.5421 72.799 46.9376C73.381 46.4611 74.1101 46.2007 74.8623 46.2007C75.6145 46.2007 76.3435 46.4611 76.9255 46.9376C77.5571 47.5149 77.8741 48.3785 77.8766 49.5282C77.8791 50.6779 77.562 51.5414 76.9255 52.1188ZM76.1039 51.1603C76.4042 50.6661 76.563 50.099 76.563 49.5208C76.563 48.9426 76.4042 48.3754 76.1039 47.8813C75.9579 47.6924 75.7689 47.5412 75.5526 47.4401C75.3363 47.339 75.099 47.2911 74.8604 47.3003C74.6218 47.2919 74.3846 47.3398 74.1679 47.4401C73.9512 47.5404 73.7612 47.6902 73.6132 47.8776C73.3086 48.3709 73.1472 48.9392 73.1472 49.5189C73.1472 50.0987 73.3086 50.667 73.6132 51.1603C73.7664 51.3411 73.9572 51.4864 74.1723 51.5861C74.3873 51.6858 74.6215 51.7374 74.8586 51.7374C75.0956 51.7374 75.3298 51.6858 75.5449 51.5861C75.7599 51.4864 75.9507 51.3411 76.1039 51.1603Z" fill="#FAF9F6"/>
<path d="M85.8852 46.3788H87.199V51.56H90.3447V52.6924H85.8852V46.3788Z" fill="#FAF9F6"/>
<path d="M99.4302 52.6776H98.1238V46.3862H99.4302V52.6776Z" fill="#FAF9F6"/>
<path d="M111.354 46.5157C111.791 46.6564 112.168 46.9375 112.428 47.3151C112.644 47.6204 112.797 47.9667 112.875 48.3329C112.954 48.6739 112.995 49.0227 112.998 49.3728C113.021 50.1146 112.846 50.8491 112.49 51.5008C112.285 51.8754 111.978 52.1845 111.605 52.3927C111.232 52.6009 110.808 52.6996 110.381 52.6776H107.665V46.3862H110.381C110.71 46.3799 111.038 46.4236 111.354 46.5157ZM108.941 47.4743V51.5822H110.155C110.443 51.5937 110.727 51.51 110.962 51.3441C111.198 51.1782 111.372 50.9393 111.458 50.6644C111.599 50.2808 111.667 49.874 111.658 49.4653C111.688 48.9542 111.584 48.4442 111.358 47.985C111.158 47.6408 110.755 47.4706 110.155 47.4706L108.941 47.4743Z" fill="#FAF9F6"/>
<path d="M122.786 46.3788H124.267L126.487 52.6702H125.088L124.674 51.3749H122.353L121.928 52.6702H120.551L122.786 46.3788ZM122.701 50.298H124.315L123.519 47.8184L122.701 50.298Z" fill="#FAF9F6"/>
<path d="M137.097 46.3788H138.578L136.483 50.3313V52.6924H135.166V50.3313L132.986 46.3936H134.536L135.846 49.1359L137.097 46.3788Z" fill="#FAF9F6"/>
<path d="M147.293 50.7347C147.316 50.9667 147.399 51.1887 147.534 51.3786C147.681 51.5168 147.857 51.6214 148.048 51.6853C148.24 51.7492 148.443 51.7708 148.644 51.7487C148.906 51.7574 149.167 51.7224 149.417 51.6451C149.582 51.6045 149.727 51.509 149.829 51.3743C149.932 51.2396 149.985 51.074 149.98 50.9049C149.982 50.807 149.957 50.7104 149.909 50.6251C149.861 50.5398 149.791 50.469 149.706 50.4201C149.43 50.2783 149.135 50.1796 148.829 50.1277L148.148 49.976C147.663 49.8972 147.196 49.7344 146.768 49.4949C146.553 49.3409 146.382 49.1344 146.271 48.8953C146.159 48.6561 146.111 48.3924 146.131 48.1293C146.125 47.8641 146.178 47.601 146.285 47.3585C146.393 47.1161 146.552 46.9003 146.753 46.7267C147.272 46.3175 147.925 46.1169 148.585 46.1641C149.2 46.1475 149.803 46.3334 150.302 46.6934C150.537 46.8723 150.727 47.1044 150.856 47.3707C150.984 47.637 151.048 47.9299 151.042 48.2255H149.776C149.776 48.0569 149.729 47.8918 149.639 47.7491C149.549 47.6064 149.421 47.4919 149.269 47.4187C149.024 47.3049 148.755 47.2504 148.485 47.2596C148.193 47.2438 147.904 47.3146 147.652 47.4631C147.554 47.523 147.474 47.6075 147.42 47.7082C147.365 47.8089 147.338 47.9223 147.341 48.0368C147.337 48.1416 147.364 48.2452 147.419 48.3348C147.474 48.4243 147.553 48.4957 147.648 48.5401C147.916 48.6599 148.197 48.7481 148.485 48.8028L149.595 49.0619C149.987 49.1361 150.359 49.2925 150.687 49.5208C150.875 49.6752 151.025 49.8721 151.122 50.0953C151.22 50.3185 151.264 50.5617 151.249 50.805C151.254 51.0791 151.197 51.3508 151.081 51.5995C150.966 51.8482 150.796 52.0675 150.583 52.2409C150.042 52.6503 149.373 52.8525 148.696 52.8108C147.999 52.8503 147.31 52.6519 146.742 52.2483C146.508 52.0669 146.321 51.8321 146.197 51.5636C146.072 51.2951 146.014 51.0007 146.027 50.7051L147.293 50.7347Z" fill="#FAF9F6"/>
</g>
<defs>
<clipPath id="clip0_2412_13559">
<rect width="210" height="52.8516" fill="white"/>
</clipPath>
</defs>
</svg>
