<svg width="349" height="371" viewBox="0 0 349 371" fill="none" xmlns="http://www.w3.org/2000/svg">
<path d="M224.25 244.906C183.731 177.053 80.492 212.712 48.791 272.257L0 356.617H46.29L98.11 278.357L123.13 294.917L82.28 356.617H119.44L171.26 278.357L196.28 294.917L155.43 356.617C214.603 359.946 254.159 295.845 224.25 244.906Z" fill="#e46729"/>
<path d="M265.214 281.941C263.282 334.599 231.195 363.062 215.393 370.711C238.039 370.711 263.239 361.245 280.268 345.545C299.332 327.969 321.18 289.99 313.468 245.56C308.197 215.196 275.795 182.072 274.291 181.019C273.088 180.177 246.131 148.611 232.803 132.933C210.267 108.977 213.638 105.96 216.478 89.2796C218.749 75.935 236.205 68.8611 244.649 66.9922H284.037L312.196 111.934C329.511 103.561 360.987 78.295 342.263 45.871C323.539 13.4471 292.98 18.2801 280.041 24.7496C263.486 -7.78852 165.872 -17.4927 143.038 53.8629C124.771 110.947 168.567 164.078 192.748 183.508C203.014 181.092 267.63 216.117 265.214 281.941Z" fill="#e46729"/>
</svg>
