<svg width="0" height="0" class="hidden">

<!-- Arrow for header -->
  <symbol xmlns="http://www.w3.org/2000/svg" version="1.1" xmlns:xlink="http://www.w3.org/1999/xlink" x="0" y="0" xml:space="preserve" viewBox="0 0 24 24" id="arrow45">
    <g>
      <path d="m22.707 11.293-7-7a1 1 0 0 0-1.414 1.414L19.586 11H2a1 1 0 0 0 0 2h17.586l-5.293 5.293a1 1 0 1 0 1.414 1.414l7-7a1 1 0 0 0 0-1.414z" fill="currentColor" opacity="1" data-original="currentColor"></path>
    </g>
  </symbol>

<!-- Tech that we use -->
  <symbol fill="none" xmlns="http://www.w3.org/2000/svg" viewBox="0 0 40 40" id="react">
    <path d="M40 20C40 17.1783 36.7833 14.7333 31.7783 13.2333C33.065 7.90001 32.5717 3.68334 30.0783 2.21667C29.5249 1.91497 28.9155 1.72974 28.2878 1.67242C27.6601 1.61509 27.0273 1.68687 26.4283 1.88334C23.9782 2.73377 21.7719 4.16783 20 6.06167C18.2281 4.16783 16.0218 2.73377 13.5717 1.88334C12.9727 1.68677 12.3399 1.61494 11.7122 1.67227C11.0844 1.7296 10.4751 1.91487 9.92167 2.21667C7.42833 3.68334 6.935 7.90001 8.22167 13.2333C3.215 14.7333 0 17.1783 0 20C0 22.8217 3.21667 25.2667 8.22167 26.7667C6.935 32.1 7.42833 36.3167 9.92167 37.7833C10.5589 38.1536 11.2848 38.3437 12.0217 38.3333C12.5456 38.3288 13.0666 38.256 13.5717 38.1167C16.022 37.2658 18.2283 35.8311 20 33.9367C21.7719 35.8305 23.9782 37.2646 26.4283 38.115C26.9328 38.2548 27.4533 38.3281 27.9767 38.3333C28.7149 38.3438 29.442 38.1531 30.08 37.7817C32.5717 36.315 33.0633 32.0983 31.78 26.765C36.7833 25.2667 40 22.8217 40 20ZM26.86 3.49334C27.2204 3.39245 27.5924 3.33867 27.9667 3.33334C28.4093 3.3236 28.8464 3.43358 29.2317 3.65167C30.89 4.62834 31.28 8.10167 30.1583 12.7967C28.4208 12.3843 26.6573 12.0903 24.88 11.9167C23.7544 10.2742 22.5123 8.7146 21.1633 7.25001C22.7321 5.55827 24.6873 4.26965 26.86 3.49334ZM25.82 23.445C25.2183 24.5083 24.5833 25.5283 23.9317 26.505C21.3151 26.7232 18.6849 26.7232 16.0683 26.505C15.4015 25.5086 14.7716 24.4879 14.18 23.445C13.5189 22.2772 12.9278 21.1289 12.4067 20C12.9311 18.8745 13.5222 17.7261 14.18 16.555C14.7817 15.4917 15.4167 14.4717 16.0683 13.495C18.6849 13.2768 21.3151 13.2768 23.9317 13.495C24.5833 14.4717 25.2183 15.4917 25.82 16.555C26.4811 17.7228 27.0722 18.8711 27.5933 20C27.0689 21.1256 26.4778 22.2739 25.82 23.445ZM28.47 22.0067C28.975 23.25 29.39 24.445 29.7283 25.5883C28.5213 25.8773 27.3003 26.1043 26.07 26.2683C26.4783 25.6167 26.8817 24.9517 27.27 24.2667C27.6983 23.51 28.0917 22.7567 28.47 22.0067ZM20 31.55C19.0365 30.5004 18.1312 29.3987 17.2883 28.25C18.175 28.3 19.075 28.3333 20 28.3333C20.925 28.3333 21.825 28.3 22.7117 28.25C21.8688 29.3987 20.9635 30.5004 20 31.55ZM13.93 26.2667C12.6998 26.1032 11.4787 25.8768 10.2717 25.5883C10.61 24.445 11.025 23.25 11.5317 22.005C11.9083 22.755 12.3017 23.51 12.7317 24.2667C13.1183 24.9517 13.5217 25.6167 13.93 26.2667ZM11.53 17.9933C11.0516 16.821 10.6316 15.6256 10.2717 14.4117C11.4787 14.1227 12.6997 13.8957 13.93 13.7317C13.5217 14.3833 13.1183 15.0483 12.73 15.7333C12.3017 16.49 11.9083 17.2433 11.53 17.9933ZM20 8.45167C20.964 9.50018 21.8698 10.6007 22.7133 11.7483C21.825 11.7 20.925 11.6667 20 11.6667C19.075 11.6667 18.175 11.7 17.2867 11.75C18.1301 10.6013 19.0359 9.50126 20 8.45167ZM27.27 15.735C26.8817 15.0483 26.4783 14.385 26.07 13.7317C27.3003 13.8957 28.5213 14.1227 29.7283 14.4117C29.3679 15.6262 28.9474 16.8222 28.4683 17.995C28.0917 17.245 27.6983 16.49 27.2683 15.7333L27.27 15.735ZM10.7667 3.65001C11.1526 3.43221 11.5903 3.32279 12.0333 3.33334C12.4076 3.33867 12.7796 3.39245 13.14 3.49334C15.3128 4.27013 17.2664 5.55933 18.835 7.25167C17.486 8.71627 16.2439 10.2758 15.1183 11.9183C13.3411 12.0914 11.5776 12.3849 9.84 12.7967C8.71833 8.10167 9.10833 4.62834 10.7667 3.65001ZM1.66667 20C1.66667 18.1417 4.29667 16.1633 8.65667 14.8483C9.18351 16.6061 9.82603 18.3271 10.58 20C9.82603 21.673 9.18351 23.3939 8.65667 25.1517C4.29667 23.835 1.66667 21.8583 1.66667 20ZM13.14 36.5067C12.754 36.641 12.345 36.6962 11.9372 36.669C11.5295 36.6418 11.1314 36.5327 10.7667 36.3483C9.10833 35.3717 8.71833 31.8983 9.84 27.2033C11.5775 27.6157 13.341 27.9097 15.1183 28.0833C16.2439 29.7258 17.486 31.2854 18.835 32.75C17.2662 34.4417 15.3127 35.7304 13.14 36.5067ZM29.2333 36.3483C28.8687 36.5328 28.4706 36.6419 28.0628 36.6691C27.655 36.6963 27.2459 36.6411 26.86 36.5067C24.6872 35.7299 22.7336 34.4407 21.165 32.7483C22.514 31.2837 23.7561 29.7242 24.8817 28.0817C26.6589 27.9086 28.4224 27.6151 30.16 27.2033C31.2817 31.8983 30.8917 35.37 29.2333 36.3483ZM31.3433 25.1517C30.8165 23.3939 30.174 21.673 29.42 20C30.174 18.3271 30.8165 16.6061 31.3433 14.8483C35.7033 16.165 38.3333 18.1417 38.3333 20C38.3333 21.8583 35.7033 23.8367 31.3433 25.1517Z" fill="#42A5F5"></path>
    <path d="M20 16.6667C19.3408 16.6667 18.6963 16.8622 18.1481 17.2285C17.6 17.5947 17.1727 18.1153 16.9204 18.7244C16.6681 19.3335 16.6021 20.0037 16.7307 20.6503C16.8594 21.2969 17.1768 21.8909 17.643 22.357C18.1092 22.8232 18.7031 23.1407 19.3497 23.2693C19.9963 23.3979 20.6665 23.3319 21.2756 23.0796C21.8847 22.8273 22.4053 22.4001 22.7716 21.8519C23.1379 21.3038 23.3334 20.6593 23.3334 20C23.3325 19.1162 22.981 18.2689 22.3561 17.644C21.7311 17.019 20.8838 16.6676 20 16.6667ZM20 21.6667C19.6704 21.6667 19.3482 21.5689 19.0741 21.3858C18.8 21.2027 18.5864 20.9424 18.4602 20.6378C18.3341 20.3333 18.3011 19.9982 18.3654 19.6749C18.4297 19.3516 18.5884 19.0546 18.8215 18.8215C19.0546 18.5884 19.3516 18.4297 19.6749 18.3654C19.9982 18.3011 20.3333 18.3341 20.6378 18.4602C20.9424 18.5864 21.2027 18.8 21.3858 19.0741C21.5689 19.3482 21.6667 19.6704 21.6667 20C21.6662 20.4419 21.4905 20.8656 21.178 21.178C20.8656 21.4905 20.4419 21.6662 20 21.6667Z" fill="#42A5F5"></path>
    <path d="M40 20C40 17.1783 36.7833 14.7333 31.7783 13.2333C33.065 7.90001 32.5717 3.68334 30.0783 2.21667C29.5249 1.91497 28.9155 1.72974 28.2878 1.67242C27.6601 1.61509 27.0273 1.68687 26.4283 1.88334C23.9782 2.73377 21.7719 4.16783 20 6.06167C18.2281 4.16783 16.0218 2.73377 13.5717 1.88334C12.9727 1.68677 12.3399 1.61494 11.7122 1.67227C11.0844 1.7296 10.4751 1.91487 9.92167 2.21667C7.42833 3.68334 6.935 7.90001 8.22167 13.2333C3.215 14.7333 0 17.1783 0 20C0 22.8217 3.21667 25.2667 8.22167 26.7667C6.935 32.1 7.42833 36.3167 9.92167 37.7833C10.5589 38.1536 11.2848 38.3437 12.0217 38.3333C12.5456 38.3288 13.0666 38.256 13.5717 38.1167C16.022 37.2658 18.2283 35.8311 20 33.9367C21.7719 35.8305 23.9782 37.2646 26.4283 38.115C26.9328 38.2548 27.4533 38.3281 27.9767 38.3333C28.7149 38.3438 29.442 38.1531 30.08 37.7817C32.5717 36.315 33.0633 32.0983 31.78 26.765C36.7833 25.2667 40 22.8217 40 20ZM26.86 3.49334C27.2204 3.39245 27.5924 3.33867 27.9667 3.33334C28.4093 3.3236 28.8464 3.43358 29.2317 3.65167C30.89 4.62834 31.28 8.10167 30.1583 12.7967C28.4208 12.3843 26.6573 12.0903 24.88 11.9167C23.7544 10.2742 22.5123 8.7146 21.1633 7.25001C22.7321 5.55827 24.6873 4.26965 26.86 3.49334ZM25.82 23.445C25.2183 24.5083 24.5833 25.5283 23.9317 26.505C21.3151 26.7232 18.6849 26.7232 16.0683 26.505C15.4015 25.5086 14.7716 24.4879 14.18 23.445C13.5189 22.2772 12.9278 21.1289 12.4067 20C12.9311 18.8745 13.5222 17.7261 14.18 16.555C14.7817 15.4917 15.4167 14.4717 16.0683 13.495C18.6849 13.2768 21.3151 13.2768 23.9317 13.495C24.5833 14.4717 25.2183 15.4917 25.82 16.555C26.4811 17.7228 27.0722 18.8711 27.5933 20C27.0689 21.1256 26.4778 22.2739 25.82 23.445ZM28.47 22.0067C28.975 23.25 29.39 24.445 29.7283 25.5883C28.5213 25.8773 27.3003 26.1043 26.07 26.2683C26.4783 25.6167 26.8817 24.9517 27.27 24.2667C27.6983 23.51 28.0917 22.7567 28.47 22.0067ZM20 31.55C19.0365 30.5004 18.1312 29.3987 17.2883 28.25C18.175 28.3 19.075 28.3333 20 28.3333C20.925 28.3333 21.825 28.3 22.7117 28.25C21.8688 29.3987 20.9635 30.5004 20 31.55ZM13.93 26.2667C12.6998 26.1032 11.4787 25.8768 10.2717 25.5883C10.61 24.445 11.025 23.25 11.5317 22.005C11.9083 22.755 12.3017 23.51 12.7317 24.2667C13.1183 24.9517 13.5217 25.6167 13.93 26.2667ZM11.53 17.9933C11.0516 16.821 10.6316 15.6256 10.2717 14.4117C11.4787 14.1227 12.6997 13.8957 13.93 13.7317C13.5217 14.3833 13.1183 15.0483 12.73 15.7333C12.3017 16.49 11.9083 17.2433 11.53 17.9933ZM20 8.45167C20.964 9.50018 21.8698 10.6007 22.7133 11.7483C21.825 11.7 20.925 11.6667 20 11.6667C19.075 11.6667 18.175 11.7 17.2867 11.75C18.1301 10.6013 19.0359 9.50126 20 8.45167ZM27.27 15.735C26.8817 15.0483 26.4783 14.385 26.07 13.7317C27.3003 13.8957 28.5213 14.1227 29.7283 14.4117C29.3679 15.6262 28.9474 16.8222 28.4683 17.995C28.0917 17.245 27.6983 16.49 27.2683 15.7333L27.27 15.735ZM10.7667 3.65001C11.1526 3.43221 11.5903 3.32279 12.0333 3.33334C12.4076 3.33867 12.7796 3.39245 13.14 3.49334C15.3128 4.27013 17.2664 5.55933 18.835 7.25167C17.486 8.71627 16.2439 10.2758 15.1183 11.9183C13.3411 12.0914 11.5776 12.3849 9.84 12.7967C8.71833 8.10167 9.10833 4.62834 10.7667 3.65001ZM1.66667 20C1.66667 18.1417 4.29667 16.1633 8.65667 14.8483C9.18351 16.6061 9.82603 18.3271 10.58 20C9.82603 21.673 9.18351 23.3939 8.65667 25.1517C4.29667 23.835 1.66667 21.8583 1.66667 20ZM13.14 36.5067C12.754 36.641 12.345 36.6962 11.9372 36.669C11.5295 36.6418 11.1314 36.5327 10.7667 36.3483C9.10833 35.3717 8.71833 31.8983 9.84 27.2033C11.5775 27.6157 13.341 27.9097 15.1183 28.0833C16.2439 29.7258 17.486 31.2854 18.835 32.75C17.2662 34.4417 15.3127 35.7304 13.14 36.5067ZM29.2333 36.3483C28.8687 36.5328 28.4706 36.6419 28.0628 36.6691C27.655 36.6963 27.2459 36.6411 26.86 36.5067C24.6872 35.7299 22.7336 34.4407 21.165 32.7483C22.514 31.2837 23.7561 29.7242 24.8817 28.0817C26.6589 27.9086 28.4224 27.6151 30.16 27.2033C31.2817 31.8983 30.8917 35.37 29.2333 36.3483ZM31.3433 25.1517C30.8165 23.3939 30.174 21.673 29.42 20C30.174 18.3271 30.8165 16.6061 31.3433 14.8483C35.7033 16.165 38.3333 18.1417 38.3333 20C38.3333 21.8583 35.7033 23.8367 31.3433 25.1517Z" fill="#01D3FF"></path>
    <path d="M20 16.6667C19.3408 16.6667 18.6963 16.8622 18.1481 17.2285C17.6 17.5947 17.1727 18.1153 16.9204 18.7244C16.6681 19.3335 16.6021 20.0037 16.7307 20.6503C16.8594 21.2969 17.1768 21.8909 17.643 22.357C18.1092 22.8232 18.7031 23.1407 19.3497 23.2693C19.9963 23.3979 20.6665 23.3319 21.2756 23.0796C21.8847 22.8273 22.4053 22.4001 22.7716 21.8519C23.1379 21.3038 23.3334 20.6593 23.3334 20C23.3325 19.1162 22.981 18.2689 22.3561 17.644C21.7311 17.019 20.8838 16.6676 20 16.6667ZM20 21.6667C19.6704 21.6667 19.3482 21.5689 19.0741 21.3858C18.8 21.2027 18.5864 20.9424 18.4602 20.6378C18.3341 20.3333 18.3011 19.9982 18.3654 19.6749C18.4297 19.3516 18.5884 19.0546 18.8215 18.8215C19.0546 18.5884 19.3516 18.4297 19.6749 18.3654C19.9982 18.3011 20.3333 18.3341 20.6378 18.4602C20.9424 18.5864 21.2027 18.8 21.3858 19.0741C21.5689 19.3482 21.6667 19.6704 21.6667 20C21.6662 20.4419 21.4905 20.8656 21.178 21.178C20.8656 21.4905 20.4419 21.6662 20 21.6667Z" fill="#01D3FF"></path>
  </symbol> 
  <symbol fill="none" xmlns="http://www.w3.org/2000/svg" viewBox="0 0 40 40" id="next">
    <path d="M14.974 27.5C14.974 28.328 14.303 29 13.474 29C12.645 29 11.974 28.328 11.974 27.5V13.5C11.974 12.847 12.397 12.269 13.019 12.07C13.644 11.872 14.321 12.1 14.698 12.633L31.475 36.337C36.617 32.709 40 26.735 40 20C40 9 31 0 20 0C9 0 0 9 0 20C0 31 9 40 20 40C23.192 40 26.206 39.223 28.89 37.878L14.974 18.216V27.5ZM24.974 12.5C24.974 11.672 25.645 11 26.474 11C27.303 11 27.974 11.672 27.974 12.5V26.34L24.974 22.113V12.5Z" fill="#212121"></path>
  </symbol>
  <symbol fill="none" xmlns="http://www.w3.org/2000/svg" viewBox="0 0 40 40" id="laravel">
    <path d="M39.9774 9.04905C39.9923 9.10237 39.9999 9.15736 40 9.21259V17.7985C40 17.9087 39.9701 18.0169 39.9132 18.1123C39.8563 18.2076 39.7746 18.2867 39.6762 18.3416L32.2576 22.4905V30.7141C32.2576 30.9379 32.1352 31.1445 31.9354 31.2572L16.4498 39.9166C16.4144 39.9362 16.3757 39.9487 16.3371 39.962C16.3226 39.9667 16.3089 39.9753 16.2936 39.9792C16.1853 40.0069 16.0715 40.0069 15.9633 39.9792C15.9455 39.9745 15.9294 39.9651 15.9125 39.9589C15.8771 39.9464 15.84 39.9354 15.8062 39.9166L0.323841 31.2572C0.225486 31.2023 0.143763 31.1232 0.086909 31.0278C0.0300547 30.9325 7.79308e-05 30.8243 0 30.7141L0 4.95643C0 4.90009 0.00805575 4.84531 0.0225561 4.7921C0.0273895 4.7741 0.0386676 4.75767 0.0451122 4.73967C0.0571958 4.7068 0.0684738 4.67315 0.0861965 4.64263C0.0982801 4.62229 0.116003 4.60586 0.130503 4.58708C0.149031 4.56203 0.165948 4.53621 0.187699 4.5143C0.206227 4.4963 0.230394 4.483 0.251339 4.46735C0.274701 4.44857 0.295646 4.42822 0.32223 4.41335L8.06461 0.0836297C8.16263 0.0288375 8.27374 0 8.38684 0C8.49993 0 8.61104 0.0288375 8.70907 0.0836297L16.4506 4.41335H16.4522C16.478 4.429 16.4998 4.44857 16.5231 4.46657C16.5441 4.48222 16.5674 4.4963 16.586 4.51352C16.6085 4.53621 16.6246 4.56203 16.644 4.58708C16.6577 4.60586 16.6762 4.62229 16.6875 4.64263C16.706 4.67394 16.7165 4.7068 16.7294 4.73967C16.7358 4.75767 16.7471 4.7741 16.7519 4.79288C16.7668 4.84621 16.7743 4.90119 16.7745 4.95643V21.0444L23.2255 17.4362V9.21181C23.2255 9.15704 23.2336 9.10148 23.2481 9.04905C23.2537 9.03027 23.2642 9.01383 23.2706 8.99584C23.2835 8.96297 23.2948 8.92932 23.3125 8.8988C23.3246 8.87846 23.3423 8.86202 23.356 8.84324C23.3754 8.8182 23.3915 8.79238 23.414 8.77047C23.4326 8.75247 23.4559 8.73917 23.4769 8.72352C23.501 8.70473 23.522 8.68439 23.5478 8.66952L31.2909 4.3398C31.3889 4.28493 31.5001 4.25605 31.6132 4.25605C31.7263 4.25605 31.8374 4.28493 31.9354 4.3398L39.677 8.66952C39.7044 8.68517 39.7253 8.70474 39.7495 8.72273C39.7696 8.73838 39.793 8.75247 39.8115 8.76968C39.8341 8.79238 39.8502 8.8182 39.8695 8.84324C39.884 8.86202 39.9017 8.87846 39.913 8.8988C39.9315 8.92932 39.942 8.96297 39.9549 8.99584C39.9621 9.01383 39.9726 9.03027 39.9774 9.04905ZM38.7095 17.4362V10.2964L36.0003 11.8114L32.2576 13.9046V21.0444L38.7103 17.4362H38.7095ZM30.9679 30.3518V23.2073L27.2864 25.2497L16.7737 31.078V38.2898L30.9679 30.3518ZM1.29053 6.04023V30.3518L15.4831 38.289V31.0788L8.06863 27.0026L8.06622 27.001L8.063 26.9994C8.03802 26.9854 8.01708 26.965 7.99372 26.9478C7.97358 26.9321 7.95022 26.9196 7.93249 26.9024L7.93088 26.9001C7.90994 26.8805 7.89544 26.8562 7.87771 26.8343C7.8616 26.8132 7.84227 26.7952 7.82938 26.7733L7.82857 26.7709C7.81407 26.7475 7.80521 26.7193 7.79474 26.6927C7.78427 26.6692 7.77057 26.6473 7.76413 26.6223C7.75607 26.5925 7.75446 26.5604 7.75124 26.5299C7.74802 26.5065 7.74157 26.483 7.74157 26.4595V9.64846L3.99968 7.55442L1.29053 6.04023ZM8.38764 1.34976L1.93741 4.95643L8.38603 8.5631L14.8355 4.95565L8.38603 1.34976H8.38764ZM11.7421 23.8584L15.4839 21.7659V6.04023L12.7748 7.5552L9.0321 9.64846V25.3741L11.7421 23.8584ZM31.6132 5.60593L25.1637 9.21259L31.6132 12.8193L38.0618 9.21181L31.6132 5.60593ZM30.9679 13.9046L27.2252 11.8114L24.5161 10.2964V17.4362L28.2579 19.5287L30.9679 21.0444V13.9046ZM16.1276 29.9942L25.5875 24.7481L30.3162 22.1266L23.8716 18.5223L16.4514 22.6721L9.68865 26.454L16.1276 29.9942Z" fill="white"></path>
  </symbol>
  <symbol fill="none" xmlns="http://www.w3.org/2000/svg" viewBox="0 0 35 40" id="html">
    <path d="M0.00380184 1.32416L2.59988 34.5363C2.61895 34.7801 2.71036 35.0127 2.8624 35.2042C3.01444 35.3958 3.2202 35.5376 3.45332 35.6115L17.1139 39.9426C17.3555 40.0191 17.6149 40.0191 17.8565 39.9426L31.5171 35.6115C31.7502 35.5376 31.956 35.3958 32.108 35.2042C32.26 35.0127 32.3515 34.7801 32.3705 34.5363L34.9666 1.32416C35.0224 0.610116 34.4581 0 33.7419 0H1.22855C0.512385 0 -0.0519396 0.610116 0.00380184 1.32416ZM28.3091 11.6288H11.39L11.9006 16.3373H27.9411L26.8918 29.7607L17.4852 32.743L8.07867 29.7607L7.53047 22.7478H12.4678V26.1877L17.6172 27.5697L22.7358 26.1877L23.1329 20.7054H7.3708L6.32433 7.31724H28.6461L28.3091 11.6288Z" fill="white"></path>
  </symbol>



</svg>