<svg width="71" height="80" viewBox="0 0 71 80" fill="none" xmlns="http://www.w3.org/2000/svg">
<path d="M62.7069 7.18146H53.7189V79.986H30.1973C30.6158 64.1014 23.2635 54.0656 7.57198 49.9554V58.592C12.8141 59.9283 16.9681 62.8876 19.6816 67.7814C21.8022 71.6047 22.0044 75.7044 21.6801 80H0V72.808H13.9302C11.2272 66.5256 6.27104 65.1229 0.285996 65.6021V42.8474C16.1833 40.7975 34.7628 52.0822 37.3472 72.787H46.2829C45.0587 60.9847 40.134 51.3406 31.2924 43.7709C22.4195 36.1766 12.0398 33.0039 0.324362 33.6756V26.2457C19.9013 25.6616 35.1464 33.4972 46.419 50.0428V0H62.679V7.20944L62.7069 7.18146Z" fill="#E46729"/>
<path d="M62.679 7.20945H70.0418V14.6533C67.4259 11.9878 65.0682 9.58461 62.707 7.18146L62.679 7.21294V7.20945Z" fill="#E46729"/>
</svg>
